<svg  viewBox="0 0 1120 444" fill="none" xmlns="http://www.w3.org/2000/svg">
<g filter="url(#filter0_d_106_683)">
<rect x="278" y="29" width="12" height="12" rx="6" fill="#759CFF"/>
</g>
<path d="M307.12 41V29.48H311.776C311.888 29.48 312.027 29.4853 312.192 29.496C312.357 29.5013 312.515 29.5173 312.664 29.544C313.304 29.6453 313.837 29.864 314.264 30.2C314.696 30.536 315.019 30.96 315.232 31.472C315.445 31.984 315.552 32.5493 315.552 33.168C315.552 34.0853 315.317 34.8773 314.848 35.544C314.379 36.2053 313.675 36.6187 312.736 36.784L312.056 36.864H308.792V41H307.12ZM313.856 41L311.584 36.312L313.272 35.88L315.768 41H313.856ZM308.792 35.28H311.712C311.819 35.28 311.936 35.2747 312.064 35.264C312.197 35.2533 312.323 35.2347 312.44 35.208C312.781 35.128 313.056 34.9813 313.264 34.768C313.472 34.5493 313.621 34.2987 313.712 34.016C313.803 33.7333 313.848 33.4507 313.848 33.168C313.848 32.8853 313.803 32.6053 313.712 32.328C313.621 32.0453 313.472 31.7973 313.264 31.584C313.056 31.3653 312.781 31.216 312.44 31.136C312.323 31.104 312.197 31.0827 312.064 31.072C311.936 31.0613 311.819 31.056 311.712 31.056H308.792V35.28ZM321.358 41.24C320.5 41.24 319.745 41.0533 319.094 40.68C318.449 40.3013 317.945 39.776 317.582 39.104C317.225 38.4267 317.046 37.6427 317.046 36.752C317.046 35.808 317.222 34.9893 317.574 34.296C317.932 33.6027 318.428 33.0667 319.062 32.688C319.697 32.3093 320.436 32.12 321.278 32.12C322.158 32.12 322.908 32.3253 323.526 32.736C324.145 33.1413 324.606 33.72 324.91 34.472C325.22 35.224 325.342 36.1173 325.278 37.152H323.606V36.544C323.596 35.5413 323.404 34.8 323.03 34.32C322.662 33.84 322.1 33.6 321.342 33.6C320.505 33.6 319.876 33.864 319.454 34.392C319.033 34.92 318.822 35.6827 318.822 36.68C318.822 37.6293 319.033 38.3653 319.454 38.888C319.876 39.4053 320.484 39.664 321.278 39.664C321.801 39.664 322.252 39.5467 322.63 39.312C323.014 39.072 323.313 38.7307 323.526 38.288L325.166 38.808C324.83 39.5813 324.321 40.1813 323.638 40.608C322.956 41.0293 322.196 41.24 321.358 41.24ZM318.278 37.152V35.848H324.446V37.152H318.278ZM328.601 41L325.961 32.352L327.617 32.36L329.425 38.288L331.249 32.36H332.689L334.513 38.288L336.321 32.36H337.969L335.329 41H333.985L331.969 34.744L329.945 41H328.601ZM341.357 41.24C340.717 41.24 340.181 41.1227 339.749 40.888C339.317 40.648 338.989 40.3333 338.765 39.944C338.546 39.5493 338.437 39.1173 338.437 38.648C338.437 38.2107 338.514 37.8267 338.669 37.496C338.824 37.1653 339.053 36.8853 339.357 36.656C339.661 36.4213 340.034 36.232 340.477 36.088C340.861 35.976 341.296 35.8773 341.781 35.792C342.266 35.7067 342.776 35.6267 343.309 35.552C343.848 35.4773 344.381 35.4027 344.909 35.328L344.301 35.664C344.312 34.9867 344.168 34.4853 343.869 34.16C343.576 33.8293 343.069 33.664 342.349 33.664C341.896 33.664 341.48 33.7707 341.101 33.984C340.722 34.192 340.458 34.5387 340.309 35.024L338.749 34.544C338.962 33.8027 339.368 33.2133 339.965 32.776C340.568 32.3387 341.368 32.12 342.365 32.12C343.138 32.12 343.81 32.2533 344.381 32.52C344.957 32.7813 345.378 33.1973 345.645 33.768C345.784 34.0507 345.869 34.3493 345.901 34.664C345.933 34.9787 345.949 35.3173 345.949 35.68V41H344.469V39.024L344.757 39.28C344.4 39.9413 343.944 40.4347 343.389 40.76C342.84 41.08 342.162 41.24 341.357 41.24ZM341.653 39.872C342.128 39.872 342.536 39.7893 342.877 39.624C343.218 39.4533 343.493 39.2373 343.701 38.976C343.909 38.7147 344.045 38.4427 344.109 38.16C344.2 37.904 344.25 37.616 344.261 37.296C344.277 36.976 344.285 36.72 344.285 36.528L344.829 36.728C344.301 36.808 343.821 36.88 343.389 36.944C342.957 37.008 342.565 37.072 342.213 37.136C341.866 37.1947 341.557 37.2667 341.285 37.352C341.056 37.432 340.85 37.528 340.669 37.64C340.493 37.752 340.352 37.888 340.245 38.048C340.144 38.208 340.093 38.4027 340.093 38.632C340.093 38.856 340.149 39.064 340.261 39.256C340.373 39.4427 340.544 39.592 340.773 39.704C341.002 39.816 341.296 39.872 341.653 39.872ZM348.026 41V32.36H349.514V34.456L349.306 34.184C349.413 33.9067 349.552 33.6533 349.722 33.424C349.893 33.1893 350.09 32.9973 350.314 32.848C350.533 32.688 350.776 32.5653 351.042 32.48C351.314 32.3893 351.592 32.336 351.874 32.32C352.157 32.2987 352.429 32.312 352.69 32.36V33.928C352.408 33.8533 352.093 33.832 351.746 33.864C351.405 33.896 351.09 34.0053 350.802 34.192C350.53 34.368 350.314 34.5813 350.154 34.832C350 35.0827 349.888 35.3627 349.818 35.672C349.749 35.976 349.714 36.2987 349.714 36.64V41H348.026ZM357.49 41.24C356.684 41.24 355.988 41.04 355.402 40.64C354.82 40.24 354.37 39.696 354.05 39.008C353.735 38.3147 353.578 37.536 353.578 36.672C353.578 35.8027 353.738 35.0267 354.058 34.344C354.378 33.656 354.831 33.1147 355.418 32.72C356.01 32.32 356.711 32.12 357.522 32.12C358.338 32.12 359.023 32.32 359.578 32.72C360.138 33.1147 360.559 33.656 360.842 34.344C361.13 35.032 361.274 35.808 361.274 36.672C361.274 37.536 361.13 38.312 360.842 39C360.554 39.688 360.13 40.2347 359.57 40.64C359.01 41.04 358.316 41.24 357.49 41.24ZM357.722 39.728C358.271 39.728 358.719 39.5973 359.066 39.336C359.412 39.0747 359.666 38.7147 359.826 38.256C359.986 37.7973 360.066 37.2693 360.066 36.672C360.066 36.0747 359.983 35.5467 359.818 35.088C359.658 34.6293 359.407 34.272 359.066 34.016C358.73 33.76 358.3 33.632 357.778 33.632C357.223 33.632 356.767 33.768 356.41 34.04C356.052 34.312 355.786 34.6773 355.61 35.136C355.439 35.5947 355.354 36.1067 355.354 36.672C355.354 37.2427 355.439 37.76 355.61 38.224C355.786 38.6827 356.047 39.048 356.394 39.32C356.746 39.592 357.188 39.728 357.722 39.728ZM360.066 41V34.784H359.874V29.48H361.554V41H360.066ZM367.096 41.232C366.045 41.232 365.189 41 364.528 40.536C363.867 40.072 363.461 39.4187 363.312 38.576L365.024 38.312C365.131 38.76 365.376 39.1147 365.76 39.376C366.149 39.632 366.632 39.76 367.208 39.76C367.731 39.76 368.139 39.6533 368.432 39.44C368.731 39.2267 368.88 38.9333 368.88 38.56C368.88 38.3413 368.827 38.1653 368.72 38.032C368.619 37.8933 368.403 37.7627 368.072 37.64C367.741 37.5173 367.237 37.3653 366.56 37.184C365.819 36.992 365.229 36.7867 364.792 36.568C364.36 36.344 364.051 36.0853 363.864 35.792C363.683 35.4933 363.592 35.1333 363.592 34.712C363.592 34.1893 363.731 33.7333 364.008 33.344C364.285 32.9547 364.675 32.6533 365.176 32.44C365.683 32.2267 366.275 32.12 366.952 32.12C367.613 32.12 368.203 32.224 368.72 32.432C369.237 32.64 369.656 32.936 369.976 33.32C370.296 33.6987 370.488 34.144 370.552 34.656L368.84 34.968C368.781 34.552 368.587 34.224 368.256 33.984C367.925 33.744 367.496 33.6133 366.968 33.592C366.461 33.5707 366.051 33.656 365.736 33.848C365.421 34.0347 365.264 34.2933 365.264 34.624C365.264 34.816 365.323 34.9787 365.44 35.112C365.563 35.2453 365.797 35.3733 366.144 35.496C366.491 35.6187 367.003 35.7653 367.68 35.936C368.405 36.1227 368.981 36.3307 369.408 36.56C369.835 36.784 370.139 37.0533 370.32 37.368C370.507 37.6773 370.6 38.0533 370.6 38.496C370.6 39.3493 370.288 40.0187 369.664 40.504C369.045 40.9893 368.189 41.232 367.096 41.232Z" fill="white"/>
<g filter="url(#filter1_d_106_683)">
<rect x="404" y="29" width="12" height="12" rx="6" fill="#FF6868"/>
</g>
<path d="M433.12 41V29.48H437.776C437.888 29.48 438.027 29.4853 438.192 29.496C438.357 29.5013 438.515 29.5173 438.664 29.544C439.304 29.6453 439.837 29.864 440.264 30.2C440.696 30.536 441.019 30.96 441.232 31.472C441.445 31.984 441.552 32.5493 441.552 33.168C441.552 33.792 441.445 34.36 441.232 34.872C441.019 35.384 440.696 35.808 440.264 36.144C439.837 36.48 439.304 36.6987 438.664 36.8C438.515 36.8213 438.355 36.8373 438.184 36.848C438.019 36.8587 437.883 36.864 437.776 36.864H434.792V41H433.12ZM434.792 35.28H437.712C437.819 35.28 437.936 35.2747 438.064 35.264C438.197 35.2533 438.323 35.2347 438.44 35.208C438.781 35.128 439.056 34.9813 439.264 34.768C439.472 34.5493 439.621 34.2987 439.712 34.016C439.803 33.7333 439.848 33.4507 439.848 33.168C439.848 32.8853 439.803 32.6053 439.712 32.328C439.621 32.0453 439.472 31.7973 439.264 31.584C439.056 31.3653 438.781 31.216 438.44 31.136C438.323 31.104 438.197 31.0827 438.064 31.072C437.936 31.0613 437.819 31.056 437.712 31.056H434.792V35.28ZM443.151 41V32.36H444.639V34.456L444.431 34.184C444.538 33.9067 444.677 33.6533 444.847 33.424C445.018 33.1893 445.215 32.9973 445.439 32.848C445.658 32.688 445.901 32.5653 446.167 32.48C446.439 32.3893 446.717 32.336 446.999 32.32C447.282 32.2987 447.554 32.312 447.815 32.36V33.928C447.533 33.8533 447.218 33.832 446.871 33.864C446.53 33.896 446.215 34.0053 445.927 34.192C445.655 34.368 445.439 34.5813 445.279 34.832C445.125 35.0827 445.013 35.3627 444.943 35.672C444.874 35.976 444.839 36.2987 444.839 36.64V41H443.151ZM449.499 30.944V29.32H451.171V30.944H449.499ZM449.499 41V32.36H451.171V41H449.499ZM455.909 41L452.773 32.36H454.461L456.757 38.904L459.053 32.36H460.741L457.605 41H455.909ZM464.138 41.24C463.498 41.24 462.962 41.1227 462.53 40.888C462.098 40.648 461.77 40.3333 461.546 39.944C461.327 39.5493 461.218 39.1173 461.218 38.648C461.218 38.2107 461.295 37.8267 461.45 37.496C461.605 37.1653 461.834 36.8853 462.138 36.656C462.442 36.4213 462.815 36.232 463.258 36.088C463.642 35.976 464.077 35.8773 464.562 35.792C465.047 35.7067 465.557 35.6267 466.09 35.552C466.629 35.4773 467.162 35.4027 467.69 35.328L467.082 35.664C467.093 34.9867 466.949 34.4853 466.65 34.16C466.357 33.8293 465.85 33.664 465.13 33.664C464.677 33.664 464.261 33.7707 463.882 33.984C463.503 34.192 463.239 34.5387 463.09 35.024L461.53 34.544C461.743 33.8027 462.149 33.2133 462.746 32.776C463.349 32.3387 464.149 32.12 465.146 32.12C465.919 32.12 466.591 32.2533 467.162 32.52C467.738 32.7813 468.159 33.1973 468.426 33.768C468.565 34.0507 468.65 34.3493 468.682 34.664C468.714 34.9787 468.73 35.3173 468.73 35.68V41H467.25V39.024L467.538 39.28C467.181 39.9413 466.725 40.4347 466.17 40.76C465.621 41.08 464.943 41.24 464.138 41.24ZM464.434 39.872C464.909 39.872 465.317 39.7893 465.658 39.624C465.999 39.4533 466.274 39.2373 466.482 38.976C466.69 38.7147 466.826 38.4427 466.89 38.16C466.981 37.904 467.031 37.616 467.042 37.296C467.058 36.976 467.066 36.72 467.066 36.528L467.61 36.728C467.082 36.808 466.602 36.88 466.17 36.944C465.738 37.008 465.346 37.072 464.994 37.136C464.647 37.1947 464.338 37.2667 464.066 37.352C463.837 37.432 463.631 37.528 463.45 37.64C463.274 37.752 463.133 37.888 463.026 38.048C462.925 38.208 462.874 38.4027 462.874 38.632C462.874 38.856 462.93 39.064 463.042 39.256C463.154 39.4427 463.325 39.592 463.554 39.704C463.783 39.816 464.077 39.872 464.434 39.872ZM475.752 41C475.208 41.1067 474.674 41.152 474.152 41.136C473.629 41.12 473.162 41.0187 472.752 40.832C472.341 40.6453 472.032 40.352 471.824 39.952C471.637 39.5947 471.536 39.232 471.52 38.864C471.509 38.4907 471.504 38.0693 471.504 37.6V29.96H473.184V37.52C473.184 37.8667 473.186 38.168 473.192 38.424C473.202 38.68 473.258 38.896 473.36 39.072C473.552 39.4027 473.856 39.592 474.272 39.64C474.693 39.6827 475.186 39.664 475.752 39.584V41ZM469.848 33.704V32.36H475.752V33.704H469.848ZM481.015 41.24C480.156 41.24 479.401 41.0533 478.751 40.68C478.105 40.3013 477.601 39.776 477.238 39.104C476.881 38.4267 476.703 37.6427 476.703 36.752C476.703 35.808 476.879 34.9893 477.231 34.296C477.588 33.6027 478.084 33.0667 478.719 32.688C479.353 32.3093 480.092 32.12 480.935 32.12C481.815 32.12 482.564 32.3253 483.183 32.736C483.801 33.1413 484.263 33.72 484.567 34.472C484.876 35.224 484.999 36.1173 484.935 37.152H483.263V36.544C483.252 35.5413 483.06 34.8 482.687 34.32C482.319 33.84 481.756 33.6 480.999 33.6C480.161 33.6 479.532 33.864 479.111 34.392C478.689 34.92 478.479 35.6827 478.479 36.68C478.479 37.6293 478.689 38.3653 479.111 38.888C479.532 39.4053 480.14 39.664 480.935 39.664C481.457 39.664 481.908 39.5467 482.287 39.312C482.671 39.072 482.969 38.7307 483.183 38.288L484.823 38.808C484.487 39.5813 483.977 40.1813 483.295 40.608C482.612 41.0293 481.852 41.24 481.015 41.24ZM477.935 37.152V35.848H484.102V37.152H477.935Z" fill="white"/>
<g filter="url(#filter2_d_106_683)">
<rect x="518" y="29" width="12" height="12" rx="6" fill="#FFF500"/>
</g>
<path d="M547.12 41V29.48H551.776C551.888 29.48 552.027 29.4853 552.192 29.496C552.357 29.5013 552.515 29.5173 552.664 29.544C553.304 29.6453 553.837 29.864 554.264 30.2C554.696 30.536 555.019 30.96 555.232 31.472C555.445 31.984 555.552 32.5493 555.552 33.168C555.552 33.792 555.445 34.36 555.232 34.872C555.019 35.384 554.696 35.808 554.264 36.144C553.837 36.48 553.304 36.6987 552.664 36.8C552.515 36.8213 552.355 36.8373 552.184 36.848C552.019 36.8587 551.883 36.864 551.776 36.864H548.792V41H547.12ZM548.792 35.28H551.712C551.819 35.28 551.936 35.2747 552.064 35.264C552.197 35.2533 552.323 35.2347 552.44 35.208C552.781 35.128 553.056 34.9813 553.264 34.768C553.472 34.5493 553.621 34.2987 553.712 34.016C553.803 33.7333 553.848 33.4507 553.848 33.168C553.848 32.8853 553.803 32.6053 553.712 32.328C553.621 32.0453 553.472 31.7973 553.264 31.584C553.056 31.3653 552.781 31.216 552.44 31.136C552.323 31.104 552.197 31.0827 552.064 31.072C551.936 31.0613 551.819 31.056 551.712 31.056H548.792V35.28ZM560.407 41.232C559.81 41.232 559.309 41.136 558.903 40.944C558.498 40.752 558.167 40.5013 557.911 40.192C557.661 39.8773 557.469 39.536 557.335 39.168C557.202 38.8 557.111 38.44 557.063 38.088C557.015 37.736 556.991 37.4267 556.991 37.16V32.36H558.687V36.608C558.687 36.944 558.714 37.2907 558.767 37.648C558.826 38 558.933 38.328 559.087 38.632C559.247 38.936 559.469 39.1813 559.751 39.368C560.039 39.5547 560.413 39.648 560.871 39.648C561.17 39.648 561.453 39.6 561.719 39.504C561.986 39.4027 562.218 39.2427 562.415 39.024C562.618 38.8053 562.775 38.5173 562.887 38.16C563.005 37.8027 563.063 37.368 563.063 36.856L564.103 37.248C564.103 38.032 563.957 38.7253 563.663 39.328C563.37 39.9253 562.949 40.392 562.399 40.728C561.85 41.064 561.186 41.232 560.407 41.232ZM563.263 41V38.504H563.063V32.36H564.751V41H563.263ZM571.051 41.24C570.224 41.24 569.531 41.04 568.971 40.64C568.411 40.2347 567.987 39.688 567.699 39C567.411 38.312 567.267 37.536 567.267 36.672C567.267 35.808 567.408 35.032 567.691 34.344C567.979 33.656 568.4 33.1147 568.955 32.72C569.515 32.32 570.203 32.12 571.019 32.12C571.83 32.12 572.528 32.32 573.115 32.72C573.707 33.1147 574.163 33.656 574.483 34.344C574.803 35.0267 574.963 35.8027 574.963 36.672C574.963 37.536 574.803 38.3147 574.483 39.008C574.168 39.696 573.718 40.24 573.131 40.64C572.55 41.04 571.856 41.24 571.051 41.24ZM566.987 41V29.48H568.667V34.784H568.475V41H566.987ZM570.819 39.728C571.352 39.728 571.792 39.592 572.139 39.32C572.491 39.048 572.752 38.6827 572.923 38.224C573.099 37.76 573.187 37.2427 573.187 36.672C573.187 36.1067 573.099 35.5947 572.923 35.136C572.752 34.6773 572.488 34.312 572.131 34.04C571.774 33.768 571.318 33.632 570.763 33.632C570.24 33.632 569.808 33.76 569.467 34.016C569.131 34.272 568.88 34.6293 568.715 35.088C568.555 35.5467 568.475 36.0747 568.475 36.672C568.475 37.2693 568.555 37.7973 568.715 38.256C568.875 38.7147 569.128 39.0747 569.475 39.336C569.822 39.5973 570.27 39.728 570.819 39.728ZM576.889 41V29.24H578.561V41H576.889ZM581.124 30.944V29.32H582.796V30.944H581.124ZM581.124 41V32.36H582.796V41H581.124ZM588.894 41.24C588.009 41.24 587.257 41.0427 586.638 40.648C586.019 40.2533 585.545 39.712 585.214 39.024C584.889 38.336 584.723 37.5547 584.718 36.68C584.723 35.7893 584.894 35.0027 585.23 34.32C585.566 33.632 586.046 33.0933 586.67 32.704C587.294 32.3147 588.043 32.12 588.918 32.12C589.862 32.12 590.667 32.3547 591.334 32.824C592.006 33.2933 592.449 33.936 592.662 34.752L590.998 35.232C590.833 34.7467 590.561 34.3707 590.182 34.104C589.809 33.832 589.379 33.696 588.894 33.696C588.345 33.696 587.894 33.8267 587.542 34.088C587.19 34.344 586.929 34.696 586.758 35.144C586.587 35.592 586.499 36.104 586.494 36.68C586.499 37.5707 586.702 38.2907 587.102 38.84C587.507 39.3893 588.105 39.664 588.894 39.664C589.433 39.664 589.867 39.5413 590.198 39.296C590.534 39.0453 590.79 38.688 590.966 38.224L592.662 38.624C592.379 39.4667 591.913 40.1147 591.262 40.568C590.611 41.016 589.822 41.24 588.894 41.24Z" fill="white"/>
<g filter="url(#filter3_d_106_683)">
<rect x="626" y="29" width="12" height="12" rx="6" fill="#53ED90"/>
</g>
<path d="M655.28 41V29.48H656.952V39.424H662.168V41H655.28ZM663.686 30.944V29.32H665.358V30.944H663.686ZM663.686 41V32.36H665.358V41H663.686ZM671.193 41.24C670.387 41.24 669.691 41.04 669.105 40.64C668.523 40.24 668.073 39.696 667.753 39.008C667.438 38.3147 667.281 37.536 667.281 36.672C667.281 35.8027 667.441 35.0267 667.761 34.344C668.081 33.656 668.534 33.1147 669.121 32.72C669.713 32.32 670.414 32.12 671.225 32.12C672.041 32.12 672.726 32.32 673.281 32.72C673.841 33.1147 674.262 33.656 674.545 34.344C674.833 35.032 674.977 35.808 674.977 36.672C674.977 37.536 674.833 38.312 674.545 39C674.257 39.688 673.833 40.2347 673.273 40.64C672.713 41.04 672.019 41.24 671.193 41.24ZM671.425 39.728C671.974 39.728 672.422 39.5973 672.769 39.336C673.115 39.0747 673.369 38.7147 673.529 38.256C673.689 37.7973 673.769 37.2693 673.769 36.672C673.769 36.0747 673.686 35.5467 673.521 35.088C673.361 34.6293 673.11 34.272 672.769 34.016C672.433 33.76 672.003 33.632 671.481 33.632C670.926 33.632 670.47 33.768 670.113 34.04C669.755 34.312 669.489 34.6773 669.313 35.136C669.142 35.5947 669.057 36.1067 669.057 36.672C669.057 37.2427 669.142 37.76 669.313 38.224C669.489 38.6827 669.75 39.048 670.097 39.32C670.449 39.592 670.891 39.728 671.425 39.728ZM673.577 44.84V38.576H673.769V32.36H675.257V44.84H673.577ZM680.751 41.232C680.154 41.232 679.652 41.136 679.247 40.944C678.842 40.752 678.511 40.5013 678.255 40.192C678.004 39.8773 677.812 39.536 677.679 39.168C677.546 38.8 677.455 38.44 677.407 38.088C677.359 37.736 677.335 37.4267 677.335 37.16V32.36H679.031V36.608C679.031 36.944 679.058 37.2907 679.111 37.648C679.17 38 679.276 38.328 679.431 38.632C679.591 38.936 679.812 39.1813 680.095 39.368C680.383 39.5547 680.756 39.648 681.215 39.648C681.514 39.648 681.796 39.6 682.063 39.504C682.33 39.4027 682.562 39.2427 682.759 39.024C682.962 38.8053 683.119 38.5173 683.231 38.16C683.348 37.8027 683.407 37.368 683.407 36.856L684.447 37.248C684.447 38.032 684.3 38.7253 684.007 39.328C683.714 39.9253 683.292 40.392 682.743 40.728C682.194 41.064 681.53 41.232 680.751 41.232ZM683.607 41V38.504H683.407V32.36H685.095V41H683.607ZM687.499 30.944V29.32H689.171V30.944H687.499ZM687.499 41V32.36H689.171V41H687.499ZM695.005 41.24C694.2 41.24 693.504 41.04 692.917 40.64C692.336 40.24 691.885 39.696 691.565 39.008C691.25 38.3147 691.093 37.536 691.093 36.672C691.093 35.8027 691.253 35.0267 691.573 34.344C691.893 33.656 692.346 33.1147 692.933 32.72C693.525 32.32 694.226 32.12 695.037 32.12C695.853 32.12 696.538 32.32 697.093 32.72C697.653 33.1147 698.074 33.656 698.357 34.344C698.645 35.032 698.789 35.808 698.789 36.672C698.789 37.536 698.645 38.312 698.357 39C698.069 39.688 697.645 40.2347 697.085 40.64C696.525 41.04 695.832 41.24 695.005 41.24ZM695.237 39.728C695.786 39.728 696.234 39.5973 696.581 39.336C696.928 39.0747 697.181 38.7147 697.341 38.256C697.501 37.7973 697.581 37.2693 697.581 36.672C697.581 36.0747 697.498 35.5467 697.333 35.088C697.173 34.6293 696.922 34.272 696.581 34.016C696.245 33.76 695.816 33.632 695.293 33.632C694.738 33.632 694.282 33.768 693.925 34.04C693.568 34.312 693.301 34.6773 693.125 35.136C692.954 35.5947 692.869 36.1067 692.869 36.672C692.869 37.2427 692.954 37.76 693.125 38.224C693.301 38.6827 693.562 39.048 693.909 39.32C694.261 39.592 694.704 39.728 695.237 39.728ZM697.581 41V34.784H697.389V29.48H699.069V41H697.581ZM701.468 30.944V29.32H703.14V30.944H701.468ZM701.468 41V32.36H703.14V41H701.468ZM710.486 41C709.942 41.1067 709.409 41.152 708.886 41.136C708.363 41.12 707.897 41.0187 707.486 40.832C707.075 40.6453 706.766 40.352 706.558 39.952C706.371 39.5947 706.27 39.232 706.254 38.864C706.243 38.4907 706.238 38.0693 706.238 37.6V29.96H707.918V37.52C707.918 37.8667 707.921 38.168 707.926 38.424C707.937 38.68 707.993 38.896 708.094 39.072C708.286 39.4027 708.59 39.592 709.006 39.64C709.427 39.6827 709.921 39.664 710.486 39.584V41ZM704.582 33.704V32.36H710.486V33.704H704.582ZM713.241 44.84L714.913 40.288L714.937 41.632L711.169 32.36H712.913L715.729 39.52H715.217L717.905 32.36H719.601L714.833 44.84H713.241Z" fill="white"/>
<g filter="url(#filter4_d_106_683)">
<rect x="752" y="29" width="12" height="12" rx="6" fill="#FFAD3F"/>
</g>
<path d="M781.12 41V29.48H785.776C785.888 29.48 786.027 29.4853 786.192 29.496C786.357 29.5013 786.515 29.5173 786.664 29.544C787.304 29.6453 787.837 29.864 788.264 30.2C788.696 30.536 789.019 30.96 789.232 31.472C789.445 31.984 789.552 32.5493 789.552 33.168C789.552 34.0853 789.317 34.8773 788.848 35.544C788.379 36.2053 787.675 36.6187 786.736 36.784L786.056 36.864H782.792V41H781.12ZM787.856 41L785.584 36.312L787.272 35.88L789.768 41H787.856ZM782.792 35.28H785.712C785.819 35.28 785.936 35.2747 786.064 35.264C786.197 35.2533 786.323 35.2347 786.44 35.208C786.781 35.128 787.056 34.9813 787.264 34.768C787.472 34.5493 787.621 34.2987 787.712 34.016C787.803 33.7333 787.848 33.4507 787.848 33.168C787.848 32.8853 787.803 32.6053 787.712 32.328C787.621 32.0453 787.472 31.7973 787.264 31.584C787.056 31.3653 786.781 31.216 786.44 31.136C786.323 31.104 786.197 31.0827 786.064 31.072C785.936 31.0613 785.819 31.056 785.712 31.056H782.792V35.28ZM795.358 41.24C794.5 41.24 793.745 41.0533 793.094 40.68C792.449 40.3013 791.945 39.776 791.582 39.104C791.225 38.4267 791.046 37.6427 791.046 36.752C791.046 35.808 791.222 34.9893 791.574 34.296C791.932 33.6027 792.428 33.0667 793.062 32.688C793.697 32.3093 794.436 32.12 795.278 32.12C796.158 32.12 796.908 32.3253 797.526 32.736C798.145 33.1413 798.606 33.72 798.91 34.472C799.22 35.224 799.342 36.1173 799.278 37.152H797.606V36.544C797.596 35.5413 797.404 34.8 797.03 34.32C796.662 33.84 796.1 33.6 795.342 33.6C794.505 33.6 793.876 33.864 793.454 34.392C793.033 34.92 792.822 35.6827 792.822 36.68C792.822 37.6293 793.033 38.3653 793.454 38.888C793.876 39.4053 794.484 39.664 795.278 39.664C795.801 39.664 796.252 39.5467 796.63 39.312C797.014 39.072 797.313 38.7307 797.526 38.288L799.166 38.808C798.83 39.5813 798.321 40.1813 797.638 40.608C796.956 41.0293 796.196 41.24 795.358 41.24ZM792.278 37.152V35.848H798.446V37.152H792.278ZM804.377 41.232C803.326 41.232 802.47 41 801.809 40.536C801.148 40.072 800.742 39.4187 800.593 38.576L802.305 38.312C802.412 38.76 802.657 39.1147 803.041 39.376C803.43 39.632 803.913 39.76 804.489 39.76C805.012 39.76 805.42 39.6533 805.713 39.44C806.012 39.2267 806.161 38.9333 806.161 38.56C806.161 38.3413 806.108 38.1653 806.001 38.032C805.9 37.8933 805.684 37.7627 805.353 37.64C805.022 37.5173 804.518 37.3653 803.841 37.184C803.1 36.992 802.51 36.7867 802.073 36.568C801.641 36.344 801.332 36.0853 801.145 35.792C800.964 35.4933 800.873 35.1333 800.873 34.712C800.873 34.1893 801.012 33.7333 801.289 33.344C801.566 32.9547 801.956 32.6533 802.457 32.44C802.964 32.2267 803.556 32.12 804.233 32.12C804.894 32.12 805.484 32.224 806.001 32.432C806.518 32.64 806.937 32.936 807.257 33.32C807.577 33.6987 807.769 34.144 807.833 34.656L806.121 34.968C806.062 34.552 805.868 34.224 805.537 33.984C805.206 33.744 804.777 33.6133 804.249 33.592C803.742 33.5707 803.332 33.656 803.017 33.848C802.702 34.0347 802.545 34.2933 802.545 34.624C802.545 34.816 802.604 34.9787 802.721 35.112C802.844 35.2453 803.078 35.3733 803.425 35.496C803.772 35.6187 804.284 35.7653 804.961 35.936C805.686 36.1227 806.262 36.3307 806.689 36.56C807.116 36.784 807.42 37.0533 807.601 37.368C807.788 37.6773 807.881 38.0533 807.881 38.496C807.881 39.3493 807.569 40.0187 806.945 40.504C806.326 40.9893 805.47 41.232 804.377 41.232ZM813.483 41.24C812.625 41.24 811.87 41.0533 811.219 40.68C810.574 40.3013 810.07 39.776 809.707 39.104C809.35 38.4267 809.171 37.6427 809.171 36.752C809.171 35.808 809.347 34.9893 809.699 34.296C810.057 33.6027 810.553 33.0667 811.187 32.688C811.822 32.3093 812.561 32.12 813.403 32.12C814.283 32.12 815.033 32.3253 815.651 32.736C816.27 33.1413 816.731 33.72 817.035 34.472C817.345 35.224 817.467 36.1173 817.403 37.152H815.731V36.544C815.721 35.5413 815.529 34.8 815.155 34.32C814.787 33.84 814.225 33.6 813.467 33.6C812.63 33.6 812.001 33.864 811.579 34.392C811.158 34.92 810.947 35.6827 810.947 36.68C810.947 37.6293 811.158 38.3653 811.579 38.888C812.001 39.4053 812.609 39.664 813.403 39.664C813.926 39.664 814.377 39.5467 814.755 39.312C815.139 39.072 815.438 38.7307 815.651 38.288L817.291 38.808C816.955 39.5813 816.446 40.1813 815.763 40.608C815.081 41.0293 814.321 41.24 813.483 41.24ZM810.403 37.152V35.848H816.571V37.152H810.403ZM819.198 41V32.36H820.686V34.456L820.478 34.184C820.585 33.9067 820.723 33.6533 820.894 33.424C821.065 33.1893 821.262 32.9973 821.486 32.848C821.705 32.688 821.947 32.5653 822.214 32.48C822.486 32.3893 822.763 32.336 823.046 32.32C823.329 32.2987 823.601 32.312 823.862 32.36V33.928C823.579 33.8533 823.265 33.832 822.918 33.864C822.577 33.896 822.262 34.0053 821.974 34.192C821.702 34.368 821.486 34.5813 821.326 34.832C821.171 35.0827 821.059 35.3627 820.99 35.672C820.921 35.976 820.886 36.2987 820.886 36.64V41H819.198ZM827.722 41L824.586 32.36H826.274L828.57 38.904L830.866 32.36H832.554L829.418 41H827.722ZM837.515 41.24C836.656 41.24 835.901 41.0533 835.251 40.68C834.605 40.3013 834.101 39.776 833.738 39.104C833.381 38.4267 833.203 37.6427 833.203 36.752C833.203 35.808 833.379 34.9893 833.731 34.296C834.088 33.6027 834.584 33.0667 835.219 32.688C835.853 32.3093 836.592 32.12 837.435 32.12C838.315 32.12 839.064 32.3253 839.683 32.736C840.301 33.1413 840.763 33.72 841.067 34.472C841.376 35.224 841.499 36.1173 841.435 37.152H839.763V36.544C839.752 35.5413 839.56 34.8 839.187 34.32C838.819 33.84 838.256 33.6 837.499 33.6C836.661 33.6 836.032 33.864 835.611 34.392C835.189 34.92 834.979 35.6827 834.979 36.68C834.979 37.6293 835.189 38.3653 835.611 38.888C836.032 39.4053 836.64 39.664 837.435 39.664C837.957 39.664 838.408 39.5467 838.787 39.312C839.171 39.072 839.469 38.7307 839.683 38.288L841.323 38.808C840.987 39.5813 840.477 40.1813 839.795 40.608C839.112 41.0293 838.352 41.24 837.515 41.24ZM834.435 37.152V35.848H840.602V37.152H834.435Z" fill="white"/>
<path d="M34.9924 66.162C34.5644 66.162 34.1624 66.082 33.7864 65.922C33.4104 65.758 33.0844 65.526 32.8084 65.226C32.5364 64.926 32.3384 64.572 32.2144 64.164L33.4264 63.828C33.5424 64.2 33.7444 64.486 34.0324 64.686C34.3204 64.882 34.6404 64.978 34.9924 64.974C35.3084 64.97 35.5864 64.896 35.8264 64.752C36.0664 64.608 36.2544 64.414 36.3904 64.17C36.5264 63.922 36.5944 63.638 36.5944 63.318C36.5944 62.838 36.4444 62.442 36.1444 62.13C35.8484 61.818 35.4604 61.662 34.9804 61.662C34.8444 61.662 34.7044 61.682 34.5604 61.722C34.4204 61.762 34.2884 61.814 34.1644 61.878L33.5764 60.888L36.6244 58.194L36.7564 58.554H32.5564V57.36H37.7524V58.554L35.2204 60.99L35.2084 60.582C35.7524 60.582 36.2244 60.704 36.6244 60.948C37.0244 61.188 37.3324 61.516 37.5484 61.932C37.7684 62.344 37.8784 62.806 37.8784 63.318C37.8784 63.87 37.7484 64.36 37.4884 64.788C37.2324 65.216 36.8864 65.552 36.4504 65.796C36.0184 66.04 35.5324 66.162 34.9924 66.162ZM42.4536 66.18C41.8656 66.18 41.3456 66.052 40.8936 65.796C40.4416 65.536 40.0856 65.18 39.8256 64.728C39.5696 64.276 39.4416 63.756 39.4416 63.168V60.192C39.4416 59.604 39.5696 59.084 39.8256 58.632C40.0856 58.18 40.4416 57.826 40.8936 57.57C41.3456 57.31 41.8656 57.18 42.4536 57.18C43.0416 57.18 43.5616 57.31 44.0136 57.57C44.4656 57.826 44.8196 58.18 45.0756 58.632C45.3356 59.084 45.4656 59.604 45.4656 60.192V63.168C45.4656 63.756 45.3356 64.276 45.0756 64.728C44.8196 65.18 44.4656 65.536 44.0136 65.796C43.5616 66.052 43.0416 66.18 42.4536 66.18ZM42.4536 64.98C42.7736 64.98 43.0636 64.904 43.3236 64.752C43.5876 64.596 43.7976 64.388 43.9536 64.128C44.1096 63.864 44.1876 63.57 44.1876 63.246V60.102C44.1876 59.782 44.1096 59.492 43.9536 59.232C43.7976 58.968 43.5876 58.76 43.3236 58.608C43.0636 58.452 42.7736 58.374 42.4536 58.374C42.1336 58.374 41.8416 58.452 41.5776 58.608C41.3176 58.76 41.1096 58.968 40.9536 59.232C40.7976 59.492 40.7196 59.782 40.7196 60.102V63.246C40.7196 63.57 40.7976 63.864 40.9536 64.128C41.1096 64.388 41.3176 64.596 41.5776 64.752C41.8416 64.904 42.1336 64.98 42.4536 64.98ZM50.1528 66.18C49.5648 66.18 49.0448 66.052 48.5928 65.796C48.1408 65.536 47.7848 65.18 47.5248 64.728C47.2688 64.276 47.1408 63.756 47.1408 63.168V60.192C47.1408 59.604 47.2688 59.084 47.5248 58.632C47.7848 58.18 48.1408 57.826 48.5928 57.57C49.0448 57.31 49.5648 57.18 50.1528 57.18C50.7408 57.18 51.2608 57.31 51.7128 57.57C52.1648 57.826 52.5188 58.18 52.7748 58.632C53.0348 59.084 53.1648 59.604 53.1648 60.192V63.168C53.1648 63.756 53.0348 64.276 52.7748 64.728C52.5188 65.18 52.1648 65.536 51.7128 65.796C51.2608 66.052 50.7408 66.18 50.1528 66.18ZM50.1528 64.98C50.4728 64.98 50.7628 64.904 51.0228 64.752C51.2868 64.596 51.4968 64.388 51.6528 64.128C51.8088 63.864 51.8868 63.57 51.8868 63.246V60.102C51.8868 59.782 51.8088 59.492 51.6528 59.232C51.4968 58.968 51.2868 58.76 51.0228 58.608C50.7628 58.452 50.4728 58.374 50.1528 58.374C49.8328 58.374 49.5408 58.452 49.2768 58.608C49.0168 58.76 48.8088 58.968 48.6528 59.232C48.4968 59.492 48.4188 59.782 48.4188 60.102V63.246C48.4188 63.57 48.4968 63.864 48.6528 64.128C48.8088 64.388 49.0168 64.596 49.2768 64.752C49.5408 64.904 49.8328 64.98 50.1528 64.98ZM60.2543 66.18C59.6663 66.18 59.1463 66.052 58.6943 65.796C58.2423 65.536 57.8863 65.18 57.6263 64.728C57.3703 64.276 57.2423 63.756 57.2423 63.168V60.192C57.2423 59.604 57.3703 59.084 57.6263 58.632C57.8863 58.18 58.2423 57.826 58.6943 57.57C59.1463 57.31 59.6663 57.18 60.2543 57.18C60.8423 57.18 61.3623 57.31 61.8143 57.57C62.2663 57.826 62.6203 58.18 62.8763 58.632C63.1363 59.084 63.2663 59.604 63.2663 60.192V63.168C63.2663 63.756 63.1363 64.276 62.8763 64.728C62.6203 65.18 62.2663 65.536 61.8143 65.796C61.3623 66.052 60.8423 66.18 60.2543 66.18ZM60.2543 64.98C60.5743 64.98 60.8643 64.904 61.1243 64.752C61.3883 64.596 61.5983 64.388 61.7543 64.128C61.9103 63.864 61.9883 63.57 61.9883 63.246V60.102C61.9883 59.782 61.9103 59.492 61.7543 59.232C61.5983 58.968 61.3883 58.76 61.1243 58.608C60.8643 58.452 60.5743 58.374 60.2543 58.374C59.9343 58.374 59.6423 58.452 59.3783 58.608C59.1183 58.76 58.9103 58.968 58.7543 59.232C58.5983 59.492 58.5203 59.782 58.5203 60.102V63.246C58.5203 63.57 58.5983 63.864 58.7543 64.128C58.9103 64.388 59.1183 64.596 59.3783 64.752C59.6423 64.904 59.9343 64.98 60.2543 64.98ZM67.9536 66.18C67.3656 66.18 66.8456 66.052 66.3936 65.796C65.9416 65.536 65.5856 65.18 65.3256 64.728C65.0696 64.276 64.9416 63.756 64.9416 63.168V60.192C64.9416 59.604 65.0696 59.084 65.3256 58.632C65.5856 58.18 65.9416 57.826 66.3936 57.57C66.8456 57.31 67.3656 57.18 67.9536 57.18C68.5416 57.18 69.0616 57.31 69.5136 57.57C69.9656 57.826 70.3196 58.18 70.5756 58.632C70.8356 59.084 70.9656 59.604 70.9656 60.192V63.168C70.9656 63.756 70.8356 64.276 70.5756 64.728C70.3196 65.18 69.9656 65.536 69.5136 65.796C69.0616 66.052 68.5416 66.18 67.9536 66.18ZM67.9536 64.98C68.2736 64.98 68.5636 64.904 68.8236 64.752C69.0876 64.596 69.2976 64.388 69.4536 64.128C69.6096 63.864 69.6876 63.57 69.6876 63.246V60.102C69.6876 59.782 69.6096 59.492 69.4536 59.232C69.2976 58.968 69.0876 58.76 68.8236 58.608C68.5636 58.452 68.2736 58.374 67.9536 58.374C67.6336 58.374 67.3416 58.452 67.0776 58.608C66.8176 58.76 66.6096 58.968 66.4536 59.232C66.2976 59.492 66.2196 59.782 66.2196 60.102V63.246C66.2196 63.57 66.2976 63.864 66.4536 64.128C66.6096 64.388 66.8176 64.596 67.0776 64.752C67.3416 64.904 67.6336 64.98 67.9536 64.98ZM75.6528 66.18C75.0648 66.18 74.5448 66.052 74.0928 65.796C73.6408 65.536 73.2848 65.18 73.0248 64.728C72.7688 64.276 72.6408 63.756 72.6408 63.168V60.192C72.6408 59.604 72.7688 59.084 73.0248 58.632C73.2848 58.18 73.6408 57.826 74.0928 57.57C74.5448 57.31 75.0648 57.18 75.6528 57.18C76.2408 57.18 76.7608 57.31 77.2128 57.57C77.6648 57.826 78.0188 58.18 78.2748 58.632C78.5348 59.084 78.6648 59.604 78.6648 60.192V63.168C78.6648 63.756 78.5348 64.276 78.2748 64.728C78.0188 65.18 77.6648 65.536 77.2128 65.796C76.7608 66.052 76.2408 66.18 75.6528 66.18ZM75.6528 64.98C75.9728 64.98 76.2628 64.904 76.5228 64.752C76.7868 64.596 76.9968 64.388 77.1528 64.128C77.3088 63.864 77.3868 63.57 77.3868 63.246V60.102C77.3868 59.782 77.3088 59.492 77.1528 59.232C76.9968 58.968 76.7868 58.76 76.5228 58.608C76.2628 58.452 75.9728 58.374 75.6528 58.374C75.3328 58.374 75.0408 58.452 74.7768 58.608C74.5168 58.76 74.3088 58.968 74.1528 59.232C73.9968 59.492 73.9188 59.782 73.9188 60.102V63.246C73.9188 63.57 73.9968 63.864 74.1528 64.128C74.3088 64.388 74.5168 64.596 74.7768 64.752C75.0408 64.904 75.3328 64.98 75.6528 64.98ZM85.7543 66.18C85.1663 66.18 84.6463 66.052 84.1943 65.796C83.7423 65.536 83.3863 65.18 83.1263 64.728C82.8703 64.276 82.7423 63.756 82.7423 63.168V60.192C82.7423 59.604 82.8703 59.084 83.1263 58.632C83.3863 58.18 83.7423 57.826 84.1943 57.57C84.6463 57.31 85.1663 57.18 85.7543 57.18C86.3423 57.18 86.8623 57.31 87.3143 57.57C87.7663 57.826 88.1203 58.18 88.3763 58.632C88.6363 59.084 88.7663 59.604 88.7663 60.192V63.168C88.7663 63.756 88.6363 64.276 88.3763 64.728C88.1203 65.18 87.7663 65.536 87.3143 65.796C86.8623 66.052 86.3423 66.18 85.7543 66.18ZM85.7543 64.98C86.0743 64.98 86.3643 64.904 86.6243 64.752C86.8883 64.596 87.0983 64.388 87.2543 64.128C87.4103 63.864 87.4883 63.57 87.4883 63.246V60.102C87.4883 59.782 87.4103 59.492 87.2543 59.232C87.0983 58.968 86.8883 58.76 86.6243 58.608C86.3643 58.452 86.0743 58.374 85.7543 58.374C85.4343 58.374 85.1423 58.452 84.8783 58.608C84.6183 58.76 84.4103 58.968 84.2543 59.232C84.0983 59.492 84.0203 59.782 84.0203 60.102V63.246C84.0203 63.57 84.0983 63.864 84.2543 64.128C84.4103 64.388 84.6183 64.596 84.8783 64.752C85.1423 64.904 85.4343 64.98 85.7543 64.98ZM93.4536 66.18C92.8656 66.18 92.3456 66.052 91.8936 65.796C91.4416 65.536 91.0856 65.18 90.8256 64.728C90.5696 64.276 90.4416 63.756 90.4416 63.168V60.192C90.4416 59.604 90.5696 59.084 90.8256 58.632C91.0856 58.18 91.4416 57.826 91.8936 57.57C92.3456 57.31 92.8656 57.18 93.4536 57.18C94.0416 57.18 94.5616 57.31 95.0136 57.57C95.4656 57.826 95.8196 58.18 96.0756 58.632C96.3356 59.084 96.4656 59.604 96.4656 60.192V63.168C96.4656 63.756 96.3356 64.276 96.0756 64.728C95.8196 65.18 95.4656 65.536 95.0136 65.796C94.5616 66.052 94.0416 66.18 93.4536 66.18ZM93.4536 64.98C93.7736 64.98 94.0636 64.904 94.3236 64.752C94.5876 64.596 94.7976 64.388 94.9536 64.128C95.1096 63.864 95.1876 63.57 95.1876 63.246V60.102C95.1876 59.782 95.1096 59.492 94.9536 59.232C94.7976 58.968 94.5876 58.76 94.3236 58.608C94.0636 58.452 93.7736 58.374 93.4536 58.374C93.1336 58.374 92.8416 58.452 92.5776 58.608C92.3176 58.76 92.1096 58.968 91.9536 59.232C91.7976 59.492 91.7196 59.782 91.7196 60.102V63.246C91.7196 63.57 91.7976 63.864 91.9536 64.128C92.1096 64.388 92.3176 64.596 92.5776 64.752C92.8416 64.904 93.1336 64.98 93.4536 64.98ZM101.153 66.18C100.565 66.18 100.045 66.052 99.5928 65.796C99.1408 65.536 98.7848 65.18 98.5248 64.728C98.2688 64.276 98.1408 63.756 98.1408 63.168V60.192C98.1408 59.604 98.2688 59.084 98.5248 58.632C98.7848 58.18 99.1408 57.826 99.5928 57.57C100.045 57.31 100.565 57.18 101.153 57.18C101.741 57.18 102.261 57.31 102.713 57.57C103.165 57.826 103.519 58.18 103.775 58.632C104.035 59.084 104.165 59.604 104.165 60.192V63.168C104.165 63.756 104.035 64.276 103.775 64.728C103.519 65.18 103.165 65.536 102.713 65.796C102.261 66.052 101.741 66.18 101.153 66.18ZM101.153 64.98C101.473 64.98 101.763 64.904 102.023 64.752C102.287 64.596 102.497 64.388 102.653 64.128C102.809 63.864 102.887 63.57 102.887 63.246V60.102C102.887 59.782 102.809 59.492 102.653 59.232C102.497 58.968 102.287 58.76 102.023 58.608C101.763 58.452 101.473 58.374 101.153 58.374C100.833 58.374 100.541 58.452 100.277 58.608C100.017 58.76 99.8088 58.968 99.6528 59.232C99.4968 59.492 99.4188 59.782 99.4188 60.102V63.246C99.4188 63.57 99.4968 63.864 99.6528 64.128C99.8088 64.388 100.017 64.596 100.277 64.752C100.541 64.904 100.833 64.98 101.153 64.98Z" fill="white" fill-opacity="0.6"/>
<rect x="114" y="65" width="981.927" height="1" fill="white" fill-opacity="0.08"/>
<path d="M32.1586 172.948L32.1646 171.832L35.9266 168.46C36.2306 168.192 36.4366 167.936 36.5446 167.692C36.6566 167.448 36.7126 167.204 36.7126 166.96C36.7126 166.652 36.6446 166.376 36.5086 166.132C36.3726 165.884 36.1846 165.688 35.9446 165.544C35.7046 165.4 35.4286 165.328 35.1166 165.328C34.7966 165.328 34.5106 165.404 34.2586 165.556C34.0106 165.704 33.8166 165.902 33.6766 166.15C33.5366 166.398 33.4686 166.666 33.4726 166.954H32.1886C32.1886 166.394 32.3146 165.904 32.5666 165.484C32.8226 165.06 33.1726 164.73 33.6166 164.494C34.0606 164.254 34.5686 164.134 35.1406 164.134C35.6846 164.134 36.1726 164.258 36.6046 164.506C37.0366 164.75 37.3766 165.086 37.6246 165.514C37.8766 165.942 38.0026 166.43 38.0026 166.978C38.0026 167.374 37.9506 167.71 37.8466 167.986C37.7426 168.262 37.5866 168.518 37.3786 168.754C37.1706 168.99 36.9106 169.246 36.5986 169.522L33.6946 172.114L33.5566 171.754H38.0026V172.948H32.1586ZM42.4536 173.134C41.8656 173.134 41.3456 173.006 40.8936 172.75C40.4416 172.49 40.0856 172.134 39.8256 171.682C39.5696 171.23 39.4416 170.71 39.4416 170.122V167.146C39.4416 166.558 39.5696 166.038 39.8256 165.586C40.0856 165.134 40.4416 164.78 40.8936 164.524C41.3456 164.264 41.8656 164.134 42.4536 164.134C43.0416 164.134 43.5616 164.264 44.0136 164.524C44.4656 164.78 44.8196 165.134 45.0756 165.586C45.3356 166.038 45.4656 166.558 45.4656 167.146V170.122C45.4656 170.71 45.3356 171.23 45.0756 171.682C44.8196 172.134 44.4656 172.49 44.0136 172.75C43.5616 173.006 43.0416 173.134 42.4536 173.134ZM42.4536 171.934C42.7736 171.934 43.0636 171.858 43.3236 171.706C43.5876 171.55 43.7976 171.342 43.9536 171.082C44.1096 170.818 44.1876 170.524 44.1876 170.2V167.056C44.1876 166.736 44.1096 166.446 43.9536 166.186C43.7976 165.922 43.5876 165.714 43.3236 165.562C43.0636 165.406 42.7736 165.328 42.4536 165.328C42.1336 165.328 41.8416 165.406 41.5776 165.562C41.3176 165.714 41.1096 165.922 40.9536 166.186C40.7976 166.446 40.7196 166.736 40.7196 167.056V170.2C40.7196 170.524 40.7976 170.818 40.9536 171.082C41.1096 171.342 41.3176 171.55 41.5776 171.706C41.8416 171.858 42.1336 171.934 42.4536 171.934ZM50.1528 173.134C49.5648 173.134 49.0448 173.006 48.5928 172.75C48.1408 172.49 47.7848 172.134 47.5248 171.682C47.2688 171.23 47.1408 170.71 47.1408 170.122V167.146C47.1408 166.558 47.2688 166.038 47.5248 165.586C47.7848 165.134 48.1408 164.78 48.5928 164.524C49.0448 164.264 49.5648 164.134 50.1528 164.134C50.7408 164.134 51.2608 164.264 51.7128 164.524C52.1648 164.78 52.5188 165.134 52.7748 165.586C53.0348 166.038 53.1648 166.558 53.1648 167.146V170.122C53.1648 170.71 53.0348 171.23 52.7748 171.682C52.5188 172.134 52.1648 172.49 51.7128 172.75C51.2608 173.006 50.7408 173.134 50.1528 173.134ZM50.1528 171.934C50.4728 171.934 50.7628 171.858 51.0228 171.706C51.2868 171.55 51.4968 171.342 51.6528 171.082C51.8088 170.818 51.8868 170.524 51.8868 170.2V167.056C51.8868 166.736 51.8088 166.446 51.6528 166.186C51.4968 165.922 51.2868 165.714 51.0228 165.562C50.7628 165.406 50.4728 165.328 50.1528 165.328C49.8328 165.328 49.5408 165.406 49.2768 165.562C49.0168 165.714 48.8088 165.922 48.6528 166.186C48.4968 166.446 48.4188 166.736 48.4188 167.056V170.2C48.4188 170.524 48.4968 170.818 48.6528 171.082C48.8088 171.342 49.0168 171.55 49.2768 171.706C49.5408 171.858 49.8328 171.934 50.1528 171.934ZM60.2543 173.134C59.6663 173.134 59.1463 173.006 58.6943 172.75C58.2423 172.49 57.8863 172.134 57.6263 171.682C57.3703 171.23 57.2423 170.71 57.2423 170.122V167.146C57.2423 166.558 57.3703 166.038 57.6263 165.586C57.8863 165.134 58.2423 164.78 58.6943 164.524C59.1463 164.264 59.6663 164.134 60.2543 164.134C60.8423 164.134 61.3623 164.264 61.8143 164.524C62.2663 164.78 62.6203 165.134 62.8763 165.586C63.1363 166.038 63.2663 166.558 63.2663 167.146V170.122C63.2663 170.71 63.1363 171.23 62.8763 171.682C62.6203 172.134 62.2663 172.49 61.8143 172.75C61.3623 173.006 60.8423 173.134 60.2543 173.134ZM60.2543 171.934C60.5743 171.934 60.8643 171.858 61.1243 171.706C61.3883 171.55 61.5983 171.342 61.7543 171.082C61.9103 170.818 61.9883 170.524 61.9883 170.2V167.056C61.9883 166.736 61.9103 166.446 61.7543 166.186C61.5983 165.922 61.3883 165.714 61.1243 165.562C60.8643 165.406 60.5743 165.328 60.2543 165.328C59.9343 165.328 59.6423 165.406 59.3783 165.562C59.1183 165.714 58.9103 165.922 58.7543 166.186C58.5983 166.446 58.5203 166.736 58.5203 167.056V170.2C58.5203 170.524 58.5983 170.818 58.7543 171.082C58.9103 171.342 59.1183 171.55 59.3783 171.706C59.6423 171.858 59.9343 171.934 60.2543 171.934ZM67.9536 173.134C67.3656 173.134 66.8456 173.006 66.3936 172.75C65.9416 172.49 65.5856 172.134 65.3256 171.682C65.0696 171.23 64.9416 170.71 64.9416 170.122V167.146C64.9416 166.558 65.0696 166.038 65.3256 165.586C65.5856 165.134 65.9416 164.78 66.3936 164.524C66.8456 164.264 67.3656 164.134 67.9536 164.134C68.5416 164.134 69.0616 164.264 69.5136 164.524C69.9656 164.78 70.3196 165.134 70.5756 165.586C70.8356 166.038 70.9656 166.558 70.9656 167.146V170.122C70.9656 170.71 70.8356 171.23 70.5756 171.682C70.3196 172.134 69.9656 172.49 69.5136 172.75C69.0616 173.006 68.5416 173.134 67.9536 173.134ZM67.9536 171.934C68.2736 171.934 68.5636 171.858 68.8236 171.706C69.0876 171.55 69.2976 171.342 69.4536 171.082C69.6096 170.818 69.6876 170.524 69.6876 170.2V167.056C69.6876 166.736 69.6096 166.446 69.4536 166.186C69.2976 165.922 69.0876 165.714 68.8236 165.562C68.5636 165.406 68.2736 165.328 67.9536 165.328C67.6336 165.328 67.3416 165.406 67.0776 165.562C66.8176 165.714 66.6096 165.922 66.4536 166.186C66.2976 166.446 66.2196 166.736 66.2196 167.056V170.2C66.2196 170.524 66.2976 170.818 66.4536 171.082C66.6096 171.342 66.8176 171.55 67.0776 171.706C67.3416 171.858 67.6336 171.934 67.9536 171.934ZM75.6528 173.134C75.0648 173.134 74.5448 173.006 74.0928 172.75C73.6408 172.49 73.2848 172.134 73.0248 171.682C72.7688 171.23 72.6408 170.71 72.6408 170.122V167.146C72.6408 166.558 72.7688 166.038 73.0248 165.586C73.2848 165.134 73.6408 164.78 74.0928 164.524C74.5448 164.264 75.0648 164.134 75.6528 164.134C76.2408 164.134 76.7608 164.264 77.2128 164.524C77.6648 164.78 78.0188 165.134 78.2748 165.586C78.5348 166.038 78.6648 166.558 78.6648 167.146V170.122C78.6648 170.71 78.5348 171.23 78.2748 171.682C78.0188 172.134 77.6648 172.49 77.2128 172.75C76.7608 173.006 76.2408 173.134 75.6528 173.134ZM75.6528 171.934C75.9728 171.934 76.2628 171.858 76.5228 171.706C76.7868 171.55 76.9968 171.342 77.1528 171.082C77.3088 170.818 77.3868 170.524 77.3868 170.2V167.056C77.3868 166.736 77.3088 166.446 77.1528 166.186C76.9968 165.922 76.7868 165.714 76.5228 165.562C76.2628 165.406 75.9728 165.328 75.6528 165.328C75.3328 165.328 75.0408 165.406 74.7768 165.562C74.5168 165.714 74.3088 165.922 74.1528 166.186C73.9968 166.446 73.9188 166.736 73.9188 167.056V170.2C73.9188 170.524 73.9968 170.818 74.1528 171.082C74.3088 171.342 74.5168 171.55 74.7768 171.706C75.0408 171.858 75.3328 171.934 75.6528 171.934ZM85.7543 173.134C85.1663 173.134 84.6463 173.006 84.1943 172.75C83.7423 172.49 83.3863 172.134 83.1263 171.682C82.8703 171.23 82.7423 170.71 82.7423 170.122V167.146C82.7423 166.558 82.8703 166.038 83.1263 165.586C83.3863 165.134 83.7423 164.78 84.1943 164.524C84.6463 164.264 85.1663 164.134 85.7543 164.134C86.3423 164.134 86.8623 164.264 87.3143 164.524C87.7663 164.78 88.1203 165.134 88.3763 165.586C88.6363 166.038 88.7663 166.558 88.7663 167.146V170.122C88.7663 170.71 88.6363 171.23 88.3763 171.682C88.1203 172.134 87.7663 172.49 87.3143 172.75C86.8623 173.006 86.3423 173.134 85.7543 173.134ZM85.7543 171.934C86.0743 171.934 86.3643 171.858 86.6243 171.706C86.8883 171.55 87.0983 171.342 87.2543 171.082C87.4103 170.818 87.4883 170.524 87.4883 170.2V167.056C87.4883 166.736 87.4103 166.446 87.2543 166.186C87.0983 165.922 86.8883 165.714 86.6243 165.562C86.3643 165.406 86.0743 165.328 85.7543 165.328C85.4343 165.328 85.1423 165.406 84.8783 165.562C84.6183 165.714 84.4103 165.922 84.2543 166.186C84.0983 166.446 84.0203 166.736 84.0203 167.056V170.2C84.0203 170.524 84.0983 170.818 84.2543 171.082C84.4103 171.342 84.6183 171.55 84.8783 171.706C85.1423 171.858 85.4343 171.934 85.7543 171.934ZM93.4536 173.134C92.8656 173.134 92.3456 173.006 91.8936 172.75C91.4416 172.49 91.0856 172.134 90.8256 171.682C90.5696 171.23 90.4416 170.71 90.4416 170.122V167.146C90.4416 166.558 90.5696 166.038 90.8256 165.586C91.0856 165.134 91.4416 164.78 91.8936 164.524C92.3456 164.264 92.8656 164.134 93.4536 164.134C94.0416 164.134 94.5616 164.264 95.0136 164.524C95.4656 164.78 95.8196 165.134 96.0756 165.586C96.3356 166.038 96.4656 166.558 96.4656 167.146V170.122C96.4656 170.71 96.3356 171.23 96.0756 171.682C95.8196 172.134 95.4656 172.49 95.0136 172.75C94.5616 173.006 94.0416 173.134 93.4536 173.134ZM93.4536 171.934C93.7736 171.934 94.0636 171.858 94.3236 171.706C94.5876 171.55 94.7976 171.342 94.9536 171.082C95.1096 170.818 95.1876 170.524 95.1876 170.2V167.056C95.1876 166.736 95.1096 166.446 94.9536 166.186C94.7976 165.922 94.5876 165.714 94.3236 165.562C94.0636 165.406 93.7736 165.328 93.4536 165.328C93.1336 165.328 92.8416 165.406 92.5776 165.562C92.3176 165.714 92.1096 165.922 91.9536 166.186C91.7976 166.446 91.7196 166.736 91.7196 167.056V170.2C91.7196 170.524 91.7976 170.818 91.9536 171.082C92.1096 171.342 92.3176 171.55 92.5776 171.706C92.8416 171.858 93.1336 171.934 93.4536 171.934ZM101.153 173.134C100.565 173.134 100.045 173.006 99.5928 172.75C99.1408 172.49 98.7848 172.134 98.5248 171.682C98.2688 171.23 98.1408 170.71 98.1408 170.122V167.146C98.1408 166.558 98.2688 166.038 98.5248 165.586C98.7848 165.134 99.1408 164.78 99.5928 164.524C100.045 164.264 100.565 164.134 101.153 164.134C101.741 164.134 102.261 164.264 102.713 164.524C103.165 164.78 103.519 165.134 103.775 165.586C104.035 166.038 104.165 166.558 104.165 167.146V170.122C104.165 170.71 104.035 171.23 103.775 171.682C103.519 172.134 103.165 172.49 102.713 172.75C102.261 173.006 101.741 173.134 101.153 173.134ZM101.153 171.934C101.473 171.934 101.763 171.858 102.023 171.706C102.287 171.55 102.497 171.342 102.653 171.082C102.809 170.818 102.887 170.524 102.887 170.2V167.056C102.887 166.736 102.809 166.446 102.653 166.186C102.497 165.922 102.287 165.714 102.023 165.562C101.763 165.406 101.473 165.328 101.153 165.328C100.833 165.328 100.541 165.406 100.277 165.562C100.017 165.714 99.8088 165.922 99.6528 166.186C99.4968 166.446 99.4188 166.736 99.4188 167.056V170.2C99.4188 170.524 99.4968 170.818 99.6528 171.082C99.8088 171.342 100.017 171.55 100.277 171.706C100.541 171.858 100.833 171.934 101.153 171.934Z" fill="white" fill-opacity="0.6"/>
<rect x="114" y="172.17" width="981.927" height="1" fill="white" fill-opacity="0.08"/>
<path d="M35.8851 280.339V273.079L34.2591 274.069V272.671L35.8851 271.699H37.1631V280.339H35.8851ZM42.4536 280.519C41.8656 280.519 41.3456 280.391 40.8936 280.135C40.4416 279.875 40.0856 279.519 39.8256 279.067C39.5696 278.615 39.4416 278.095 39.4416 277.507V274.531C39.4416 273.943 39.5696 273.423 39.8256 272.971C40.0856 272.519 40.4416 272.165 40.8936 271.909C41.3456 271.649 41.8656 271.519 42.4536 271.519C43.0416 271.519 43.5616 271.649 44.0136 271.909C44.4656 272.165 44.8196 272.519 45.0756 272.971C45.3356 273.423 45.4656 273.943 45.4656 274.531V277.507C45.4656 278.095 45.3356 278.615 45.0756 279.067C44.8196 279.519 44.4656 279.875 44.0136 280.135C43.5616 280.391 43.0416 280.519 42.4536 280.519ZM42.4536 279.319C42.7736 279.319 43.0636 279.243 43.3236 279.091C43.5876 278.935 43.7976 278.727 43.9536 278.467C44.1096 278.203 44.1876 277.909 44.1876 277.585V274.441C44.1876 274.121 44.1096 273.831 43.9536 273.571C43.7976 273.307 43.5876 273.099 43.3236 272.947C43.0636 272.791 42.7736 272.713 42.4536 272.713C42.1336 272.713 41.8416 272.791 41.5776 272.947C41.3176 273.099 41.1096 273.307 40.9536 273.571C40.7976 273.831 40.7196 274.121 40.7196 274.441V277.585C40.7196 277.909 40.7976 278.203 40.9536 278.467C41.1096 278.727 41.3176 278.935 41.5776 279.091C41.8416 279.243 42.1336 279.319 42.4536 279.319ZM50.1528 280.519C49.5648 280.519 49.0448 280.391 48.5928 280.135C48.1408 279.875 47.7848 279.519 47.5248 279.067C47.2688 278.615 47.1408 278.095 47.1408 277.507V274.531C47.1408 273.943 47.2688 273.423 47.5248 272.971C47.7848 272.519 48.1408 272.165 48.5928 271.909C49.0448 271.649 49.5648 271.519 50.1528 271.519C50.7408 271.519 51.2608 271.649 51.7128 271.909C52.1648 272.165 52.5188 272.519 52.7748 272.971C53.0348 273.423 53.1648 273.943 53.1648 274.531V277.507C53.1648 278.095 53.0348 278.615 52.7748 279.067C52.5188 279.519 52.1648 279.875 51.7128 280.135C51.2608 280.391 50.7408 280.519 50.1528 280.519ZM50.1528 279.319C50.4728 279.319 50.7628 279.243 51.0228 279.091C51.2868 278.935 51.4968 278.727 51.6528 278.467C51.8088 278.203 51.8868 277.909 51.8868 277.585V274.441C51.8868 274.121 51.8088 273.831 51.6528 273.571C51.4968 273.307 51.2868 273.099 51.0228 272.947C50.7628 272.791 50.4728 272.713 50.1528 272.713C49.8328 272.713 49.5408 272.791 49.2768 272.947C49.0168 273.099 48.8088 273.307 48.6528 273.571C48.4968 273.831 48.4188 274.121 48.4188 274.441V277.585C48.4188 277.909 48.4968 278.203 48.6528 278.467C48.8088 278.727 49.0168 278.935 49.2768 279.091C49.5408 279.243 49.8328 279.319 50.1528 279.319ZM60.2543 280.519C59.6663 280.519 59.1463 280.391 58.6943 280.135C58.2423 279.875 57.8863 279.519 57.6263 279.067C57.3703 278.615 57.2423 278.095 57.2423 277.507V274.531C57.2423 273.943 57.3703 273.423 57.6263 272.971C57.8863 272.519 58.2423 272.165 58.6943 271.909C59.1463 271.649 59.6663 271.519 60.2543 271.519C60.8423 271.519 61.3623 271.649 61.8143 271.909C62.2663 272.165 62.6203 272.519 62.8763 272.971C63.1363 273.423 63.2663 273.943 63.2663 274.531V277.507C63.2663 278.095 63.1363 278.615 62.8763 279.067C62.6203 279.519 62.2663 279.875 61.8143 280.135C61.3623 280.391 60.8423 280.519 60.2543 280.519ZM60.2543 279.319C60.5743 279.319 60.8643 279.243 61.1243 279.091C61.3883 278.935 61.5983 278.727 61.7543 278.467C61.9103 278.203 61.9883 277.909 61.9883 277.585V274.441C61.9883 274.121 61.9103 273.831 61.7543 273.571C61.5983 273.307 61.3883 273.099 61.1243 272.947C60.8643 272.791 60.5743 272.713 60.2543 272.713C59.9343 272.713 59.6423 272.791 59.3783 272.947C59.1183 273.099 58.9103 273.307 58.7543 273.571C58.5983 273.831 58.5203 274.121 58.5203 274.441V277.585C58.5203 277.909 58.5983 278.203 58.7543 278.467C58.9103 278.727 59.1183 278.935 59.3783 279.091C59.6423 279.243 59.9343 279.319 60.2543 279.319ZM67.9536 280.519C67.3656 280.519 66.8456 280.391 66.3936 280.135C65.9416 279.875 65.5856 279.519 65.3256 279.067C65.0696 278.615 64.9416 278.095 64.9416 277.507V274.531C64.9416 273.943 65.0696 273.423 65.3256 272.971C65.5856 272.519 65.9416 272.165 66.3936 271.909C66.8456 271.649 67.3656 271.519 67.9536 271.519C68.5416 271.519 69.0616 271.649 69.5136 271.909C69.9656 272.165 70.3196 272.519 70.5756 272.971C70.8356 273.423 70.9656 273.943 70.9656 274.531V277.507C70.9656 278.095 70.8356 278.615 70.5756 279.067C70.3196 279.519 69.9656 279.875 69.5136 280.135C69.0616 280.391 68.5416 280.519 67.9536 280.519ZM67.9536 279.319C68.2736 279.319 68.5636 279.243 68.8236 279.091C69.0876 278.935 69.2976 278.727 69.4536 278.467C69.6096 278.203 69.6876 277.909 69.6876 277.585V274.441C69.6876 274.121 69.6096 273.831 69.4536 273.571C69.2976 273.307 69.0876 273.099 68.8236 272.947C68.5636 272.791 68.2736 272.713 67.9536 272.713C67.6336 272.713 67.3416 272.791 67.0776 272.947C66.8176 273.099 66.6096 273.307 66.4536 273.571C66.2976 273.831 66.2196 274.121 66.2196 274.441V277.585C66.2196 277.909 66.2976 278.203 66.4536 278.467C66.6096 278.727 66.8176 278.935 67.0776 279.091C67.3416 279.243 67.6336 279.319 67.9536 279.319ZM75.6528 280.519C75.0648 280.519 74.5448 280.391 74.0928 280.135C73.6408 279.875 73.2848 279.519 73.0248 279.067C72.7688 278.615 72.6408 278.095 72.6408 277.507V274.531C72.6408 273.943 72.7688 273.423 73.0248 272.971C73.2848 272.519 73.6408 272.165 74.0928 271.909C74.5448 271.649 75.0648 271.519 75.6528 271.519C76.2408 271.519 76.7608 271.649 77.2128 271.909C77.6648 272.165 78.0188 272.519 78.2748 272.971C78.5348 273.423 78.6648 273.943 78.6648 274.531V277.507C78.6648 278.095 78.5348 278.615 78.2748 279.067C78.0188 279.519 77.6648 279.875 77.2128 280.135C76.7608 280.391 76.2408 280.519 75.6528 280.519ZM75.6528 279.319C75.9728 279.319 76.2628 279.243 76.5228 279.091C76.7868 278.935 76.9968 278.727 77.1528 278.467C77.3088 278.203 77.3868 277.909 77.3868 277.585V274.441C77.3868 274.121 77.3088 273.831 77.1528 273.571C76.9968 273.307 76.7868 273.099 76.5228 272.947C76.2628 272.791 75.9728 272.713 75.6528 272.713C75.3328 272.713 75.0408 272.791 74.7768 272.947C74.5168 273.099 74.3088 273.307 74.1528 273.571C73.9968 273.831 73.9188 274.121 73.9188 274.441V277.585C73.9188 277.909 73.9968 278.203 74.1528 278.467C74.3088 278.727 74.5168 278.935 74.7768 279.091C75.0408 279.243 75.3328 279.319 75.6528 279.319ZM85.7543 280.519C85.1663 280.519 84.6463 280.391 84.1943 280.135C83.7423 279.875 83.3863 279.519 83.1263 279.067C82.8703 278.615 82.7423 278.095 82.7423 277.507V274.531C82.7423 273.943 82.8703 273.423 83.1263 272.971C83.3863 272.519 83.7423 272.165 84.1943 271.909C84.6463 271.649 85.1663 271.519 85.7543 271.519C86.3423 271.519 86.8623 271.649 87.3143 271.909C87.7663 272.165 88.1203 272.519 88.3763 272.971C88.6363 273.423 88.7663 273.943 88.7663 274.531V277.507C88.7663 278.095 88.6363 278.615 88.3763 279.067C88.1203 279.519 87.7663 279.875 87.3143 280.135C86.8623 280.391 86.3423 280.519 85.7543 280.519ZM85.7543 279.319C86.0743 279.319 86.3643 279.243 86.6243 279.091C86.8883 278.935 87.0983 278.727 87.2543 278.467C87.4103 278.203 87.4883 277.909 87.4883 277.585V274.441C87.4883 274.121 87.4103 273.831 87.2543 273.571C87.0983 273.307 86.8883 273.099 86.6243 272.947C86.3643 272.791 86.0743 272.713 85.7543 272.713C85.4343 272.713 85.1423 272.791 84.8783 272.947C84.6183 273.099 84.4103 273.307 84.2543 273.571C84.0983 273.831 84.0203 274.121 84.0203 274.441V277.585C84.0203 277.909 84.0983 278.203 84.2543 278.467C84.4103 278.727 84.6183 278.935 84.8783 279.091C85.1423 279.243 85.4343 279.319 85.7543 279.319ZM93.4536 280.519C92.8656 280.519 92.3456 280.391 91.8936 280.135C91.4416 279.875 91.0856 279.519 90.8256 279.067C90.5696 278.615 90.4416 278.095 90.4416 277.507V274.531C90.4416 273.943 90.5696 273.423 90.8256 272.971C91.0856 272.519 91.4416 272.165 91.8936 271.909C92.3456 271.649 92.8656 271.519 93.4536 271.519C94.0416 271.519 94.5616 271.649 95.0136 271.909C95.4656 272.165 95.8196 272.519 96.0756 272.971C96.3356 273.423 96.4656 273.943 96.4656 274.531V277.507C96.4656 278.095 96.3356 278.615 96.0756 279.067C95.8196 279.519 95.4656 279.875 95.0136 280.135C94.5616 280.391 94.0416 280.519 93.4536 280.519ZM93.4536 279.319C93.7736 279.319 94.0636 279.243 94.3236 279.091C94.5876 278.935 94.7976 278.727 94.9536 278.467C95.1096 278.203 95.1876 277.909 95.1876 277.585V274.441C95.1876 274.121 95.1096 273.831 94.9536 273.571C94.7976 273.307 94.5876 273.099 94.3236 272.947C94.0636 272.791 93.7736 272.713 93.4536 272.713C93.1336 272.713 92.8416 272.791 92.5776 272.947C92.3176 273.099 92.1096 273.307 91.9536 273.571C91.7976 273.831 91.7196 274.121 91.7196 274.441V277.585C91.7196 277.909 91.7976 278.203 91.9536 278.467C92.1096 278.727 92.3176 278.935 92.5776 279.091C92.8416 279.243 93.1336 279.319 93.4536 279.319ZM101.153 280.519C100.565 280.519 100.045 280.391 99.5928 280.135C99.1408 279.875 98.7848 279.519 98.5248 279.067C98.2688 278.615 98.1408 278.095 98.1408 277.507V274.531C98.1408 273.943 98.2688 273.423 98.5248 272.971C98.7848 272.519 99.1408 272.165 99.5928 271.909C100.045 271.649 100.565 271.519 101.153 271.519C101.741 271.519 102.261 271.649 102.713 271.909C103.165 272.165 103.519 272.519 103.775 272.971C104.035 273.423 104.165 273.943 104.165 274.531V277.507C104.165 278.095 104.035 278.615 103.775 279.067C103.519 279.519 103.165 279.875 102.713 280.135C102.261 280.391 101.741 280.519 101.153 280.519ZM101.153 279.319C101.473 279.319 101.763 279.243 102.023 279.091C102.287 278.935 102.497 278.727 102.653 278.467C102.809 278.203 102.887 277.909 102.887 277.585V274.441C102.887 274.121 102.809 273.831 102.653 273.571C102.497 273.307 102.287 273.099 102.023 272.947C101.763 272.791 101.473 272.713 101.153 272.713C100.833 272.713 100.541 272.791 100.277 272.947C100.017 273.099 99.8088 273.307 99.6528 273.571C99.4968 273.831 99.4188 274.121 99.4188 274.441V277.585C99.4188 277.909 99.4968 278.203 99.6528 278.467C99.8088 278.727 100.017 278.935 100.277 279.091C100.541 279.243 100.833 279.319 101.153 279.319Z" fill="white" fill-opacity="0.6"/>
<rect x="114" y="279.555" width="982" height="1" fill="white" fill-opacity="0.08"/>
<path d="M101.153 387.905C100.565 387.905 100.045 387.777 99.5928 387.521C99.1408 387.261 98.7848 386.905 98.5248 386.453C98.2688 386.001 98.1408 385.481 98.1408 384.893V381.917C98.1408 381.329 98.2688 380.809 98.5248 380.357C98.7848 379.905 99.1408 379.551 99.5928 379.295C100.045 379.035 100.565 378.905 101.153 378.905C101.741 378.905 102.261 379.035 102.713 379.295C103.165 379.551 103.519 379.905 103.775 380.357C104.035 380.809 104.165 381.329 104.165 381.917V384.893C104.165 385.481 104.035 386.001 103.775 386.453C103.519 386.905 103.165 387.261 102.713 387.521C102.261 387.777 101.741 387.905 101.153 387.905ZM101.153 386.705C101.473 386.705 101.763 386.629 102.023 386.477C102.287 386.321 102.497 386.113 102.653 385.853C102.809 385.589 102.887 385.295 102.887 384.971V381.827C102.887 381.507 102.809 381.217 102.653 380.957C102.497 380.693 102.287 380.485 102.023 380.333C101.763 380.177 101.473 380.099 101.153 380.099C100.833 380.099 100.541 380.177 100.277 380.333C100.017 380.485 99.8088 380.693 99.6528 380.957C99.4968 381.217 99.4188 381.507 99.4188 381.827V384.971C99.4188 385.295 99.4968 385.589 99.6528 385.853C99.8088 386.113 100.017 386.321 100.277 386.477C100.541 386.629 100.833 386.705 101.153 386.705Z" fill="white" fill-opacity="0.6"/>
<rect x="114" y="386.94" width="982" height="1" fill="white" fill-opacity="0.08"/>
<path d="M194.732 409V401.74L193.106 402.73V401.332L194.732 400.36H196.01V409H194.732ZM198.049 408.994L198.055 407.878L201.817 404.506C202.121 404.238 202.327 403.982 202.435 403.738C202.547 403.494 202.603 403.25 202.603 403.006C202.603 402.698 202.535 402.422 202.399 402.178C202.263 401.93 202.075 401.734 201.835 401.59C201.595 401.446 201.319 401.374 201.007 401.374C200.687 401.374 200.401 401.45 200.149 401.602C199.901 401.75 199.707 401.948 199.567 402.196C199.427 402.444 199.359 402.712 199.363 403H198.079C198.079 402.44 198.205 401.95 198.457 401.53C198.713 401.106 199.063 400.776 199.507 400.54C199.951 400.3 200.459 400.18 201.031 400.18C201.575 400.18 202.063 400.304 202.495 400.552C202.927 400.796 203.267 401.132 203.515 401.56C203.767 401.988 203.893 402.476 203.893 403.024C203.893 403.42 203.841 403.756 203.737 404.032C203.633 404.308 203.477 404.564 203.269 404.8C203.061 405.036 202.801 405.292 202.489 405.568L199.585 408.16L199.447 407.8H203.893V408.994H198.049Z" fill="white" fill-opacity="0.6"/>
<path d="M483.727 408.994L483.733 407.878L487.495 404.506C487.799 404.238 488.005 403.982 488.113 403.738C488.225 403.494 488.281 403.25 488.281 403.006C488.281 402.698 488.213 402.422 488.077 402.178C487.941 401.93 487.753 401.734 487.513 401.59C487.273 401.446 486.997 401.374 486.685 401.374C486.365 401.374 486.079 401.45 485.827 401.602C485.579 401.75 485.385 401.948 485.245 402.196C485.105 402.444 485.037 402.712 485.041 403H483.757C483.757 402.44 483.883 401.95 484.135 401.53C484.391 401.106 484.741 400.776 485.185 400.54C485.629 400.3 486.137 400.18 486.709 400.18C487.253 400.18 487.741 400.304 488.173 400.552C488.605 400.796 488.945 401.132 489.193 401.56C489.445 401.988 489.571 402.476 489.571 403.024C489.571 403.42 489.519 403.756 489.415 404.032C489.311 404.308 489.155 404.564 488.947 404.8C488.739 405.036 488.479 405.292 488.167 405.568L485.263 408.16L485.125 407.8H489.571V408.994H483.727ZM494.435 409V407.494H490.535V406.306L493.343 400.36H494.777L491.969 406.306H494.435V403.966H495.707V406.306H496.565V407.494H495.707V409H494.435Z" fill="white" fill-opacity="0.6"/>
<path d="M777.951 409.162C777.523 409.162 777.121 409.082 776.745 408.922C776.369 408.758 776.043 408.526 775.767 408.226C775.495 407.926 775.297 407.572 775.173 407.164L776.385 406.828C776.501 407.2 776.703 407.486 776.991 407.686C777.279 407.882 777.599 407.978 777.951 407.974C778.267 407.97 778.545 407.896 778.785 407.752C779.025 407.608 779.213 407.414 779.349 407.17C779.485 406.922 779.553 406.638 779.553 406.318C779.553 405.838 779.403 405.442 779.103 405.13C778.807 404.818 778.419 404.662 777.939 404.662C777.803 404.662 777.663 404.682 777.519 404.722C777.379 404.762 777.247 404.814 777.123 404.878L776.535 403.888L779.583 401.194L779.715 401.554H775.515V400.36H780.711V401.554L778.179 403.99L778.167 403.582C778.711 403.582 779.183 403.704 779.583 403.948C779.983 404.188 780.291 404.516 780.507 404.932C780.727 405.344 780.837 405.806 780.837 406.318C780.837 406.87 780.707 407.36 780.447 407.788C780.191 408.216 779.845 408.552 779.409 408.796C778.977 409.04 778.491 409.162 777.951 409.162ZM785.371 409.18C784.811 409.18 784.307 409.048 783.859 408.784C783.411 408.516 783.055 408.15 782.791 407.686C782.531 407.222 782.401 406.694 782.401 406.102V403.348C782.401 402.72 782.531 402.168 782.791 401.692C783.055 401.216 783.419 400.846 783.883 400.582C784.351 400.318 784.889 400.186 785.497 400.186C785.953 400.186 786.381 400.272 786.781 400.444C787.181 400.616 787.527 400.872 787.819 401.212L786.901 402.07C786.737 401.858 786.531 401.69 786.283 401.566C786.039 401.438 785.777 401.374 785.497 401.374C785.137 401.374 784.821 401.46 784.549 401.632C784.277 401.8 784.063 402.022 783.907 402.298C783.755 402.574 783.679 402.87 783.679 403.186V404.77L783.433 404.494C783.681 404.17 783.989 403.914 784.357 403.726C784.725 403.538 785.119 403.444 785.539 403.444C786.075 403.444 786.553 403.57 786.973 403.822C787.397 404.07 787.729 404.408 787.969 404.836C788.213 405.264 788.335 405.746 788.335 406.282C788.335 406.822 788.199 407.312 787.927 407.752C787.659 408.188 787.299 408.536 786.847 408.796C786.399 409.052 785.907 409.18 785.371 409.18ZM785.371 407.974C785.683 407.974 785.967 407.898 786.223 407.746C786.479 407.594 786.683 407.39 786.835 407.134C786.987 406.878 787.063 406.594 787.063 406.282C787.063 405.97 786.987 405.686 786.835 405.43C786.687 405.174 786.485 404.97 786.229 404.818C785.973 404.666 785.689 404.59 785.377 404.59C785.065 404.59 784.779 404.666 784.519 404.818C784.263 404.97 784.059 405.174 783.907 405.43C783.755 405.686 783.679 405.97 783.679 406.282C783.679 406.59 783.755 406.872 783.907 407.128C784.059 407.384 784.263 407.59 784.519 407.746C784.775 407.898 785.059 407.974 785.371 407.974Z" fill="white" fill-opacity="0.6"/>
<path d="M1070.84 409V407.494H1066.94V406.306L1069.74 400.36H1071.18L1068.37 406.306H1070.84V403.966H1072.11V406.306H1072.97V407.494H1072.11V409H1070.84ZM1077.17 409.18C1076.61 409.18 1076.11 409.068 1075.67 408.844C1075.24 408.616 1074.9 408.3 1074.65 407.896C1074.41 407.492 1074.29 407.024 1074.29 406.492C1074.29 405.996 1074.4 405.542 1074.63 405.13C1074.87 404.718 1075.21 404.394 1075.67 404.158L1075.65 404.59C1075.28 404.362 1075 404.078 1074.8 403.738C1074.6 403.394 1074.5 403.01 1074.5 402.586C1074.5 402.094 1074.62 401.668 1074.84 401.308C1075.07 400.948 1075.39 400.67 1075.79 400.474C1076.19 400.278 1076.65 400.18 1077.17 400.18C1077.69 400.18 1078.15 400.278 1078.55 400.474C1078.95 400.67 1079.27 400.948 1079.49 401.308C1079.72 401.668 1079.84 402.094 1079.84 402.586C1079.84 403.01 1079.74 403.392 1079.55 403.732C1079.37 404.072 1079.08 404.358 1078.69 404.59L1078.67 404.17C1079.13 404.394 1079.47 404.714 1079.71 405.13C1079.95 405.542 1080.06 405.996 1080.06 406.492C1080.06 407.024 1079.94 407.492 1079.69 407.896C1079.44 408.3 1079.1 408.616 1078.67 408.844C1078.23 409.068 1077.73 409.18 1077.17 409.18ZM1077.17 407.986C1077.64 407.986 1078.01 407.86 1078.3 407.608C1078.59 407.352 1078.73 406.98 1078.73 406.492C1078.73 406.004 1078.59 405.632 1078.3 405.376C1078.02 405.116 1077.64 404.986 1077.17 404.986C1076.7 404.986 1076.33 405.116 1076.04 405.376C1075.75 405.632 1075.61 406.004 1075.61 406.492C1075.61 406.98 1075.76 407.352 1076.04 407.608C1076.33 407.86 1076.71 407.986 1077.17 407.986ZM1077.17 403.786C1077.57 403.786 1077.89 403.688 1078.13 403.492C1078.38 403.292 1078.5 402.99 1078.5 402.586C1078.5 402.182 1078.38 401.88 1078.13 401.68C1077.89 401.476 1077.57 401.374 1077.17 401.374C1076.78 401.374 1076.45 401.476 1076.21 401.68C1075.96 401.88 1075.83 402.182 1075.83 402.586C1075.83 402.99 1075.96 403.292 1076.21 403.492C1076.45 403.688 1076.78 403.786 1077.17 403.786Z" fill="white" fill-opacity="0.6"/>
<path d="M291.453 186C224.446 190.5 217.514 211 114 219.5V387H1096V67H954.592C884.35 67 728.154 87.0002 678.246 92.5002C628.337 98.0002 476.052 119.779 431.013 125C379.256 131 358.46 181.5 291.453 186Z" fill="url(#paint0_linear_106_683)"/>
<path d="M287.675 186.5C220.699 191 217.466 211.5 114 220V388H1096V77H954.659C884.45 77 728.327 97.0002 678.442 102.5C628.557 108 478.901 129.5 433.635 130.5C388.369 131.5 354.65 182 287.675 186.5Z" fill="url(#paint1_linear_106_683)"/>
<path d="M287.675 196.5C220.699 201 217.466 221.5 114 230V388H1096V138L907.355 138C837.146 138 727.404 135 677.518 140.5C627.633 146 483.058 157 437.792 158C392.526 159 354.65 192 287.675 196.5Z" fill="url(#paint2_linear_106_683)"/>
<g filter="url(#filter5_d_106_683)">
<path d="M114 230C217.466 221.5 220.699 201 287.675 196.5C354.65 192 392.526 159 437.792 158C483.058 157 627.633 146 677.518 140.5C727.404 135 838.468 138 908.677 138C964.844 138 1045.19 138 1096 138" stroke="#FFF500" stroke-width="2"/>
</g>
<g filter="url(#filter6_d_106_683)">
<path d="M114 219C217.514 210.528 224.446 190.095 291.453 185.61C358.46 181.125 379.256 130.79 431.013 124.81C476.052 119.606 628.337 97.8985 678.246 92.4166C728.154 86.9346 884.35 67 954.592 67C1010.79 67 1045.17 67 1096 67" stroke="#FFAD3F" stroke-width="2"/>
</g>
<g filter="url(#filter7_d_106_683)">
<path d="M114 220C217.466 211.5 220.699 191 287.675 186.5C354.65 182 388.369 131.5 433.635 130.5C478.901 129.5 628.557 108 678.442 102.5C728.327 97.0001 884.45 77 954.659 77C1010.83 77 1045.19 77 1096 77" stroke="#53ED90" stroke-width="2"/>
</g>
<path d="M1096 243H114V309H1096V243Z" fill="url(#paint3_linear_106_683)"/>
<g filter="url(#filter8_d_106_683)">
<path d="M114 243.5H1096" stroke="#FF6868" stroke-width="2"/>
</g>
<path d="M1096 257.5H114V387H1096V257.5Z" fill="url(#paint4_linear_106_683)"/>
<g filter="url(#filter9_d_106_683)">
<path d="M114 257.5H1096" stroke="#5282FF" stroke-width="2"/>
</g>
<defs>
<filter id="filter0_d_106_683" x="262" y="13" width="44" height="44" filterUnits="userSpaceOnUse" color-interpolation-filters="sRGB">
<feFlood flood-opacity="0" result="BackgroundImageFix"/>
<feColorMatrix in="SourceAlpha" type="matrix" values="0 0 0 0 0 0 0 0 0 0 0 0 0 0 0 0 0 0 127 0" result="hardAlpha"/>
<feOffset/>
<feGaussianBlur stdDeviation="8"/>
<feComposite in2="hardAlpha" operator="out"/>
<feColorMatrix type="matrix" values="0 0 0 0 0.458824 0 0 0 0 0.611765 0 0 0 0 1 0 0 0 0.8 0"/>
<feBlend mode="normal" in2="BackgroundImageFix" result="effect1_dropShadow_106_683"/>
<feBlend mode="normal" in="SourceGraphic" in2="effect1_dropShadow_106_683" result="shape"/>
</filter>
<filter id="filter1_d_106_683" x="388" y="13" width="44" height="44" filterUnits="userSpaceOnUse" color-interpolation-filters="sRGB">
<feFlood flood-opacity="0" result="BackgroundImageFix"/>
<feColorMatrix in="SourceAlpha" type="matrix" values="0 0 0 0 0 0 0 0 0 0 0 0 0 0 0 0 0 0 127 0" result="hardAlpha"/>
<feOffset/>
<feGaussianBlur stdDeviation="8"/>
<feComposite in2="hardAlpha" operator="out"/>
<feColorMatrix type="matrix" values="0 0 0 0 1 0 0 0 0 0.407843 0 0 0 0 0.407843 0 0 0 0.8 0"/>
<feBlend mode="normal" in2="BackgroundImageFix" result="effect1_dropShadow_106_683"/>
<feBlend mode="normal" in="SourceGraphic" in2="effect1_dropShadow_106_683" result="shape"/>
</filter>
<filter id="filter2_d_106_683" x="502" y="13" width="44" height="44" filterUnits="userSpaceOnUse" color-interpolation-filters="sRGB">
<feFlood flood-opacity="0" result="BackgroundImageFix"/>
<feColorMatrix in="SourceAlpha" type="matrix" values="0 0 0 0 0 0 0 0 0 0 0 0 0 0 0 0 0 0 127 0" result="hardAlpha"/>
<feOffset/>
<feGaussianBlur stdDeviation="8"/>
<feComposite in2="hardAlpha" operator="out"/>
<feColorMatrix type="matrix" values="0 0 0 0 1 0 0 0 0 0.96 0 0 0 0 0 0 0 0 0.8 0"/>
<feBlend mode="normal" in2="BackgroundImageFix" result="effect1_dropShadow_106_683"/>
<feBlend mode="normal" in="SourceGraphic" in2="effect1_dropShadow_106_683" result="shape"/>
</filter>
<filter id="filter3_d_106_683" x="610" y="13" width="44" height="44" filterUnits="userSpaceOnUse" color-interpolation-filters="sRGB">
<feFlood flood-opacity="0" result="BackgroundImageFix"/>
<feColorMatrix in="SourceAlpha" type="matrix" values="0 0 0 0 0 0 0 0 0 0 0 0 0 0 0 0 0 0 127 0" result="hardAlpha"/>
<feOffset/>
<feGaussianBlur stdDeviation="8"/>
<feComposite in2="hardAlpha" operator="out"/>
<feColorMatrix type="matrix" values="0 0 0 0 0.32549 0 0 0 0 0.929412 0 0 0 0 0.564706 0 0 0 0.8 0"/>
<feBlend mode="normal" in2="BackgroundImageFix" result="effect1_dropShadow_106_683"/>
<feBlend mode="normal" in="SourceGraphic" in2="effect1_dropShadow_106_683" result="shape"/>
</filter>
<filter id="filter4_d_106_683" x="736" y="13" width="44" height="44" filterUnits="userSpaceOnUse" color-interpolation-filters="sRGB">
<feFlood flood-opacity="0" result="BackgroundImageFix"/>
<feColorMatrix in="SourceAlpha" type="matrix" values="0 0 0 0 0 0 0 0 0 0 0 0 0 0 0 0 0 0 127 0" result="hardAlpha"/>
<feOffset/>
<feGaussianBlur stdDeviation="8"/>
<feComposite in2="hardAlpha" operator="out"/>
<feColorMatrix type="matrix" values="0 0 0 0 1 0 0 0 0 0.678431 0 0 0 0 0.247059 0 0 0 0.8 0"/>
<feBlend mode="normal" in2="BackgroundImageFix" result="effect1_dropShadow_106_683"/>
<feBlend mode="normal" in="SourceGraphic" in2="effect1_dropShadow_106_683" result="shape"/>
</filter>
<filter id="filter5_d_106_683" x="109.918" y="132.184" width="990.082" height="102.813" filterUnits="userSpaceOnUse" color-interpolation-filters="sRGB">
<feFlood flood-opacity="0" result="BackgroundImageFix"/>
<feColorMatrix in="SourceAlpha" type="matrix" values="0 0 0 0 0 0 0 0 0 0 0 0 0 0 0 0 0 0 127 0" result="hardAlpha"/>
<feOffset/>
<feGaussianBlur stdDeviation="2"/>
<feComposite in2="hardAlpha" operator="out"/>
<feColorMatrix type="matrix" values="0 0 0 0 1 0 0 0 0 0.960784 0 0 0 0 0 0 0 0 0.24 0"/>
<feBlend mode="normal" in2="BackgroundImageFix" result="effect1_dropShadow_106_683"/>
<feBlend mode="normal" in="SourceGraphic" in2="effect1_dropShadow_106_683" result="shape"/>
</filter>
<filter id="filter6_d_106_683" x="109.918" y="62" width="990.082" height="161.997" filterUnits="userSpaceOnUse" color-interpolation-filters="sRGB">
<feFlood flood-opacity="0" result="BackgroundImageFix"/>
<feColorMatrix in="SourceAlpha" type="matrix" values="0 0 0 0 0 0 0 0 0 0 0 0 0 0 0 0 0 0 127 0" result="hardAlpha"/>
<feOffset/>
<feGaussianBlur stdDeviation="2"/>
<feComposite in2="hardAlpha" operator="out"/>
<feColorMatrix type="matrix" values="0 0 0 0 1 0 0 0 0 0.678431 0 0 0 0 0.247059 0 0 0 0.24 0"/>
<feBlend mode="normal" in2="BackgroundImageFix" result="effect1_dropShadow_106_683"/>
<feBlend mode="normal" in="SourceGraphic" in2="effect1_dropShadow_106_683" result="shape"/>
</filter>
<filter id="filter7_d_106_683" x="109.918" y="72" width="990.082" height="152.997" filterUnits="userSpaceOnUse" color-interpolation-filters="sRGB">
<feFlood flood-opacity="0" result="BackgroundImageFix"/>
<feColorMatrix in="SourceAlpha" type="matrix" values="0 0 0 0 0 0 0 0 0 0 0 0 0 0 0 0 0 0 127 0" result="hardAlpha"/>
<feOffset/>
<feGaussianBlur stdDeviation="2"/>
<feComposite in2="hardAlpha" operator="out"/>
<feColorMatrix type="matrix" values="0 0 0 0 0.32549 0 0 0 0 0.929412 0 0 0 0 0.564706 0 0 0 0.24 0"/>
<feBlend mode="normal" in2="BackgroundImageFix" result="effect1_dropShadow_106_683"/>
<feBlend mode="normal" in="SourceGraphic" in2="effect1_dropShadow_106_683" result="shape"/>
</filter>
<filter id="filter8_d_106_683" x="110" y="238.5" width="990" height="10" filterUnits="userSpaceOnUse" color-interpolation-filters="sRGB">
<feFlood flood-opacity="0" result="BackgroundImageFix"/>
<feColorMatrix in="SourceAlpha" type="matrix" values="0 0 0 0 0 0 0 0 0 0 0 0 0 0 0 0 0 0 127 0" result="hardAlpha"/>
<feOffset/>
<feGaussianBlur stdDeviation="2"/>
<feComposite in2="hardAlpha" operator="out"/>
<feColorMatrix type="matrix" values="0 0 0 0 1 0 0 0 0 0.407843 0 0 0 0 0.407843 0 0 0 0.24 0"/>
<feBlend mode="normal" in2="BackgroundImageFix" result="effect1_dropShadow_106_683"/>
<feBlend mode="normal" in="SourceGraphic" in2="effect1_dropShadow_106_683" result="shape"/>
</filter>
<filter id="filter9_d_106_683" x="110" y="252.5" width="990" height="10" filterUnits="userSpaceOnUse" color-interpolation-filters="sRGB">
<feFlood flood-opacity="0" result="BackgroundImageFix"/>
<feColorMatrix in="SourceAlpha" type="matrix" values="0 0 0 0 0 0 0 0 0 0 0 0 0 0 0 0 0 0 127 0" result="hardAlpha"/>
<feOffset/>
<feGaussianBlur stdDeviation="2"/>
<feComposite in2="hardAlpha" operator="out"/>
<feColorMatrix type="matrix" values="0 0 0 0 0.458824 0 0 0 0 0.611765 0 0 0 0 1 0 0 0 0.24 0"/>
<feBlend mode="normal" in2="BackgroundImageFix" result="effect1_dropShadow_106_683"/>
<feBlend mode="normal" in="SourceGraphic" in2="effect1_dropShadow_106_683" result="shape"/>
</filter>
<linearGradient id="paint0_linear_106_683" x1="605" y1="67" x2="605" y2="387" gradientUnits="userSpaceOnUse">
<stop stop-color="#FFAD3F" stop-opacity="0.08"/>
<stop offset="1" stop-color="#FFAD3F" stop-opacity="0"/>
</linearGradient>
<linearGradient id="paint1_linear_106_683" x1="605" y1="77" x2="605" y2="388" gradientUnits="userSpaceOnUse">
<stop stop-color="#53ED90" stop-opacity="0.08"/>
<stop offset="1" stop-color="#53ED90" stop-opacity="0"/>
</linearGradient>
<linearGradient id="paint2_linear_106_683" x1="605" y1="138" x2="605" y2="388" gradientUnits="userSpaceOnUse">
<stop stop-color="#FFF500" stop-opacity="0.08"/>
<stop offset="1" stop-color="#FFF500" stop-opacity="0"/>
</linearGradient>
<linearGradient id="paint3_linear_106_683" x1="605" y1="243" x2="605" y2="309" gradientUnits="userSpaceOnUse">
<stop stop-color="#FF6868" stop-opacity="0.1"/>
<stop offset="1" stop-color="#FF6868" stop-opacity="0"/>
</linearGradient>
<linearGradient id="paint4_linear_106_683" x1="605" y1="257.5" x2="605" y2="387" gradientUnits="userSpaceOnUse">
<stop stop-color="#759CFF" stop-opacity="0.1"/>
<stop offset="1" stop-color="#759CFF" stop-opacity="0"/>
</linearGradient>
</defs>
</svg>
