<svg  viewBox="0 0 25 24" fill="none" xmlns="http://www.w3.org/2000/svg">
<path d="M4.91501 7.33205C4.37952 7.08235 4.17253 6.42177 4.52334 5.94633C4.79906 5.57265 5.09491 5.22434 5.41088 4.90138C5.69205 4.61401 5.99104 4.34759 6.30785 4.10214C6.80392 3.71782 7.50575 3.97984 7.61892 4.59708C7.69864 5.03182 7.7438 5.47914 7.75443 5.93903C7.77483 6.82205 7.65828 7.67339 7.40479 8.49306L4.91501 7.33205ZM18.4617 13.649C18.9267 12.9279 19.4984 12.2934 20.1769 11.7455C20.5407 11.4517 20.9217 11.1949 21.3197 10.9751C21.8598 10.677 22.4988 11.0407 22.5257 11.6571C22.5434 12.0617 22.5313 12.469 22.4895 12.8791C22.4438 13.3275 22.3681 13.7732 22.2625 14.2164C22.1253 14.7919 21.4858 15.0591 20.9496 14.8091L18.4617 13.649ZM3.69017 13.0053C3.14752 13.3107 2.49943 12.9482 2.47228 12.3261C2.45498 11.9299 2.46601 11.5319 2.50538 11.1322C2.54968 10.6826 2.62633 10.2321 2.73536 9.78067C2.87407 9.20633 3.51315 8.94028 4.04864 9.18998L6.53842 10.351C6.07346 11.072 5.49797 11.7048 4.81195 12.2492C4.45132 12.5354 4.07739 12.7874 3.69017 13.0053ZM18.6817 19.9005C18.1923 20.2761 17.5029 20.0204 17.3842 19.415C17.2966 18.9688 17.2485 18.512 17.2397 18.0443C17.2233 17.1724 17.3419 16.3266 17.5954 15.5069L20.0832 16.667C20.6194 16.9171 20.8258 17.5787 20.4731 18.0538C20.2015 18.4195 19.9087 18.764 19.5946 19.0873C19.3073 19.3829 19.003 19.654 18.6817 19.9005ZM9.24006 9.34886C9.62636 8.20494 9.80022 7.0631 9.76162 5.92333C9.73427 5.1156 9.61362 4.31978 9.39968 3.53587C9.25323 2.99926 9.51432 2.41434 10.0538 2.27877C10.813 2.08797 11.5895 1.99087 12.3831 1.98746C13.1563 1.98414 13.9284 2.07022 14.6995 2.24571C15.2813 2.3781 15.5554 3.02248 15.3033 3.56321L12.0043 10.6378L9.24006 9.34886ZM13.8622 11.5042L17.1612 4.42958C17.4133 3.88885 18.0832 3.68464 18.5585 4.04519C19.1886 4.52309 19.7509 5.05926 20.2453 5.65367C20.7484 6.25846 21.1701 6.90949 21.5104 7.60676C21.7579 8.11375 21.4668 8.69663 20.9522 8.92787C20.2183 9.25767 19.5373 9.67343 18.9093 10.1752C18.0154 10.8893 17.2545 11.762 16.6265 12.7932L13.8622 11.5042ZM7.83824 19.572C7.58636 20.1122 6.91742 20.3168 6.44231 19.957C5.80302 19.4728 5.23852 18.9303 4.7488 18.3297C4.25344 17.7221 3.83678 17.0693 3.49882 16.3712C3.253 15.8635 3.54389 15.2807 4.05879 15.0501C4.7917 14.722 5.47083 14.3098 6.09617 13.8135C6.98654 13.1069 7.74571 12.238 8.3737 11.2068L11.1379 12.4958L7.83824 19.572ZM10.3006 21.7543C9.71888 21.6219 9.44476 20.9775 9.69691 20.4368L12.9959 13.3621L15.7601 14.6511C15.3738 15.795 15.1944 16.9389 15.2219 18.0827C15.2413 18.8863 15.3605 19.6752 15.5796 20.4494C15.7333 20.9923 15.4738 21.5899 14.9264 21.7262C14.1735 21.9137 13.4037 22.0091 12.6171 22.0125C11.8439 22.0158 11.0718 21.9298 10.3006 21.7543Z" fill="current"/>
</svg>
