<svg  viewBox="0 0 24 24" fill="none" xmlns="http://www.w3.org/2000/svg">
<g id="swap_vertical_circle">
<mask id="mask0_106_756" style="mask-type:alpha" maskUnits="userSpaceOnUse" x="0" y="0" width="24" height="24">
<rect id="Bounding box" width="24" height="24" fill="#D9D9D9"/>
</mask>
<g mask="url(#mask0_106_756)">
<path id="swap_vertical_circle_2" d="M9.00024 8.85V12C9.00024 12.2833 9.09608 12.5208 9.28774 12.7125C9.47941 12.9042 9.71691 13 10.0002 13C10.2836 13 10.5211 12.9042 10.7127 12.7125C10.9044 12.5208 11.0002 12.2833 11.0002 12V8.85L11.9002 9.725C12.0836 9.90833 12.3127 10 12.5877 10C12.8627 10 13.1002 9.9 13.3002 9.7C13.4836 9.51667 13.5752 9.28333 13.5752 9C13.5752 8.71667 13.4836 8.48333 13.3002 8.3L10.7252 5.725C10.5252 5.525 10.2877 5.425 10.0127 5.425C9.73774 5.425 9.50024 5.525 9.30024 5.725L6.70024 8.3C6.51691 8.48333 6.42108 8.7125 6.41274 8.9875C6.40441 9.2625 6.50024 9.5 6.70024 9.7C6.88358 9.88333 7.11274 9.97917 7.38774 9.9875C7.66274 9.99583 7.90024 9.90833 8.10024 9.725L9.00024 8.85ZM13.0002 15.15L12.1002 14.275C11.9169 14.0917 11.6877 14 11.4127 14C11.1377 14 10.9002 14.1 10.7002 14.3C10.5169 14.4833 10.4252 14.7167 10.4252 15C10.4252 15.2833 10.5169 15.5167 10.7002 15.7L13.3002 18.3C13.5002 18.5 13.7377 18.6 14.0127 18.6C14.2877 18.6 14.5252 18.5 14.7252 18.3L17.3002 15.7C17.4836 15.5167 17.5794 15.2875 17.5877 15.0125C17.5961 14.7375 17.5002 14.5 17.3002 14.3C17.1169 14.1167 16.8877 14.0208 16.6127 14.0125C16.3377 14.0042 16.1002 14.0917 15.9002 14.275L15.0002 15.15V12C15.0002 11.7167 14.9044 11.4792 14.7127 11.2875C14.5211 11.0958 14.2836 11 14.0002 11C13.7169 11 13.4794 11.0958 13.2877 11.2875C13.0961 11.4792 13.0002 11.7167 13.0002 12V15.15ZM12.0002 22C10.6169 22 9.31691 21.7375 8.10024 21.2125C6.88358 20.6875 5.82524 19.975 4.92524 19.075C4.02524 18.175 3.31274 17.1167 2.78774 15.9C2.26274 14.6833 2.00024 13.3833 2.00024 12C2.00024 10.6167 2.26274 9.31667 2.78774 8.1C3.31274 6.88333 4.02524 5.825 4.92524 4.925C5.82524 4.025 6.88358 3.3125 8.10024 2.7875C9.31691 2.2625 10.6169 2 12.0002 2C13.3836 2 14.6836 2.2625 15.9002 2.7875C17.1169 3.3125 18.1752 4.025 19.0752 4.925C19.9752 5.825 20.6877 6.88333 21.2127 8.1C21.7377 9.31667 22.0002 10.6167 22.0002 12C22.0002 13.3833 21.7377 14.6833 21.2127 15.9C20.6877 17.1167 19.9752 18.175 19.0752 19.075C18.1752 19.975 17.1169 20.6875 15.9002 21.2125C14.6836 21.7375 13.3836 22 12.0002 22Z" fill="#C2C0FF"/>
</g>
</g>
</svg>
