<svg  viewBox="0 0 24 24" fill="none" xmlns="http://www.w3.org/2000/svg">
<path d="M14.9347 13.6887C14.9347 12.1332 14.0014 11.5998 12.1347 11.3777C10.8014 11.1998 10.5348 10.8444 10.5348 10.222C10.5348 9.59977 10.9792 9.19984 11.868 9.19984C12.668 9.19984 13.1126 9.4665 13.3347 10.1332C13.3792 10.2665 13.5126 10.3554 13.6459 10.3554H14.3569C14.5347 10.3554 14.668 10.222 14.668 10.0444V9.99984C14.4902 9.02204 13.6902 8.2665 12.668 8.1777V7.11104C12.668 6.93317 12.5347 6.79984 12.3126 6.75537H11.6459C11.4681 6.75537 11.3348 6.8887 11.2902 7.11104V8.13317C9.95691 8.31104 9.11258 9.19984 9.11258 10.311C9.11258 11.7777 10.0014 12.3554 11.868 12.5777C13.1126 12.7999 13.5126 13.0666 13.5126 13.7777C13.5126 14.4888 12.8902 14.9777 12.0459 14.9777C10.8902 14.9777 10.4902 14.4887 10.3569 13.822C10.3126 13.6444 10.1792 13.5554 10.0459 13.5554H9.29032C9.11258 13.5554 8.97925 13.6887 8.97925 13.8666V13.911C9.15698 15.022 9.86811 15.822 11.3348 16.0444V17.111C11.3348 17.2887 11.4681 17.422 11.6902 17.4666H12.3569C12.5347 17.4666 12.668 17.3332 12.7126 17.111V16.0444C14.0458 15.822 14.9347 14.8887 14.9347 13.6887Z" fill="white"/>
<path d="M9.73429 18.3549C6.26761 17.1105 4.4898 13.2438 5.77876 9.82157C6.44543 7.9549 7.91209 6.5327 9.73429 5.86603C9.91209 5.77718 10.001 5.64385 10.001 5.42155V4.79937C10.001 4.62155 9.91209 4.48822 9.73429 4.44385C9.68983 4.44385 9.60096 4.44385 9.55649 4.48822C5.33428 5.82155 3.02313 10.3105 4.35647 14.5327C5.15647 17.0216 7.06763 18.9327 9.55649 19.7327C9.73429 19.8216 9.91209 19.7327 9.95649 19.5549C10.001 19.5105 10.001 19.466 10.001 19.3772V18.7549C10.001 18.6216 9.86763 18.4438 9.73429 18.3549ZM14.4454 4.48822C14.2676 4.39937 14.0898 4.48822 14.0454 4.66603C14.001 4.71051 14.001 4.75489 14.001 4.84385V5.46603C14.001 5.64385 14.1343 5.82155 14.2676 5.91051C17.7343 7.1549 19.5121 11.0216 18.2232 14.4438C17.5565 16.3105 16.0898 17.7327 14.2676 18.3994C14.0898 18.4882 14.001 18.6216 14.001 18.8438V19.466C14.001 19.6438 14.0898 19.7772 14.2676 19.8216C14.3121 19.8216 14.401 19.8216 14.4454 19.7772C18.6676 18.4438 20.9788 13.9549 19.6454 9.7327C18.8454 7.19937 16.8898 5.28822 14.4454 4.48822Z" fill="white"/>
</svg>
