<svg  viewBox="0 0 24 24" fill="none" xmlns="http://www.w3.org/2000/svg">
<g id="token">
<mask id="mask0_106_742" style="mask-type:alpha" maskUnits="userSpaceOnUse" x="0" y="0" width="24" height="24">
<rect id="Bounding box" width="24" height="24" fill="#D9D9D9"/>
</mask>
<g mask="url(#mask0_106_742)">
<path id="token_2" d="M9.1 9.2499C9.46667 8.86657 9.89583 8.5624 10.3875 8.3374C10.8792 8.1124 11.4167 7.9999 12 7.9999C12.5833 7.9999 13.1208 8.1124 13.6125 8.3374C14.1042 8.5624 14.5333 8.86657 14.9 9.2499L19.95 6.4249L12.975 2.5499C12.675 2.36657 12.35 2.2749 12 2.2749C11.65 2.2749 11.325 2.36657 11.025 2.5499L4.05 6.4249L9.1 9.2499ZM11 21.4499V15.8749C10.1333 15.6416 9.41667 15.1707 8.85 14.4624C8.28333 13.7541 8 12.9332 8 11.9999C8 11.8166 8.00833 11.6416 8.025 11.4749C8.04167 11.3082 8.075 11.1499 8.125 10.9999L3 8.1249V15.8249C3 16.1916 3.09167 16.5291 3.275 16.8374C3.45833 17.1457 3.70833 17.3916 4.025 17.5749L11 21.4499ZM12 13.9999C12.55 13.9999 13.0208 13.8041 13.4125 13.4124C13.8042 13.0207 14 12.5499 14 11.9999C14 11.4499 13.8042 10.9791 13.4125 10.5874C13.0208 10.1957 12.55 9.9999 12 9.9999C11.45 9.9999 10.9792 10.1957 10.5875 10.5874C10.1958 10.9791 10 11.4499 10 11.9999C10 12.5499 10.1958 13.0207 10.5875 13.4124C10.9792 13.8041 11.45 13.9999 12 13.9999ZM13 21.4499L19.975 17.5749C20.2917 17.3916 20.5417 17.1457 20.725 16.8374C20.9083 16.5291 21 16.1916 21 15.8249V8.1249L15.875 10.9999C15.925 11.1666 15.9583 11.3291 15.975 11.4874C15.9917 11.6457 16 11.8166 16 11.9999C16 12.9332 15.7167 13.7541 15.15 14.4624C14.5833 15.1707 13.8667 15.6416 13 15.8749V21.4499Z" fill="#C2C0FF"/>
</g>
</g>
</svg>
