<svg width="24" height="24" viewBox="0 0 24 24" fill="none" xmlns="http://www.w3.org/2000/svg">
<g id="legend_toggle">
<mask id="mask0_106_749" style="mask-type:alpha" maskUnits="userSpaceOnUse" x="0" y="0" width="24" height="24">
<rect id="Bounding box" width="24" height="24" fill="#D9D9D9"/>
</mask>
<g mask="url(#mask0_106_749)">
<path id="legend_toggle_2" d="M4.99976 16.9998H18.9998C19.2831 16.9998 19.5206 17.0957 19.7123 17.2873C19.9039 17.479 19.9998 17.7165 19.9998 17.9998C19.9998 18.2832 19.9039 18.5207 19.7123 18.7123C19.5206 18.904 19.2831 18.9998 18.9998 18.9998H4.99976C4.71642 18.9998 4.47892 18.904 4.28726 18.7123C4.09559 18.5207 3.99976 18.2832 3.99976 17.9998C3.99976 17.7165 4.09559 17.479 4.28726 17.2873C4.47892 17.0957 4.71642 16.9998 4.99976 16.9998ZM4.99976 12.9998H18.9998C19.2831 12.9998 19.5206 13.0957 19.7123 13.2873C19.9039 13.479 19.9998 13.7165 19.9998 13.9998C19.9998 14.2832 19.9039 14.5207 19.7123 14.7123C19.5206 14.904 19.2831 14.9998 18.9998 14.9998H4.99976C4.71642 14.9998 4.47892 14.904 4.28726 14.7123C4.09559 14.5207 3.99976 14.2832 3.99976 13.9998C3.99976 13.7165 4.09559 13.479 4.28726 13.2873C4.47892 13.0957 4.71642 12.9998 4.99976 12.9998ZM4.47476 8.34983L8.87476 5.67483C9.20809 5.45817 9.57476 5.35817 9.97476 5.37483C10.3748 5.3915 10.7414 5.5165 11.0748 5.74983L14.9998 8.54983L18.4248 6.12483C18.7581 5.8915 19.1039 5.86233 19.4623 6.03733C19.8206 6.21233 19.9998 6.50817 19.9998 6.92483C19.9998 7.0915 19.9623 7.24983 19.8873 7.39983C19.8123 7.54983 19.7081 7.6665 19.5748 7.74983L16.1498 10.1748C15.7998 10.4248 15.4164 10.5498 14.9998 10.5498C14.5831 10.5498 14.1998 10.4248 13.8498 10.1748L9.92476 7.39983L5.52476 10.0748C5.19142 10.2748 4.85392 10.279 4.51226 10.0873C4.17059 9.89567 3.99976 9.60817 3.99976 9.22483C3.99976 9.0415 4.04142 8.87067 4.12476 8.71233C4.20809 8.554 4.32476 8.43317 4.47476 8.34983Z" fill="#C2C0FF"/>
</g>
</g>
</svg>
