<svg  viewBox="0 0 24 24" fill="none" xmlns="http://www.w3.org/2000/svg">
<path d="M13.1399 12.094V12.0922C13.0692 12.0973 12.7045 12.1192 11.8929 12.1192C11.244 12.1192 10.7889 12.1007 10.6279 12.0922V12.094C8.13243 11.9811 6.27101 11.5366 6.27101 11.0028C6.27101 10.4708 8.13405 10.0247 10.6279 9.91178V11.6511C10.7906 11.6629 11.2588 11.6915 11.9045 11.6915C12.6799 11.6915 13.0676 11.6578 13.1399 11.6511V9.91352C15.6305 10.028 17.4869 10.4725 17.4869 11.0046C17.4869 11.5366 15.6288 11.9811 13.1399 12.0956V12.094ZM13.1399 9.73331V8.17752H16.6146V5.80518H7.15485V8.17752H10.6296V9.73331C7.80546 9.86632 5.68286 10.4388 5.68286 11.1258C5.68286 11.8127 7.80709 12.3852 10.6296 12.5199V17.5071H13.1415V12.5199C15.9607 12.3869 18.08 11.8144 18.08 11.1275C18.08 10.4422 15.9607 9.868 13.1415 9.73505" fill="white"/>
</svg>
