<svg width="25" height="24" viewBox="0 0 25 24" fill="none" xmlns="http://www.w3.org/2000/svg">
<path d="M5.04989 19C4.19989 19 3.54156 18.7042 3.07489 18.1125C2.60823 17.5208 2.43323 16.8 2.54989 15.95L3.59989 8.45C3.74989 7.45 4.19573 6.625 4.93739 5.975C5.67906 5.325 6.54989 5 7.54989 5H17.4499C18.4499 5 19.3207 5.325 20.0624 5.975C20.8041 6.625 21.2499 7.45 21.3999 8.45L22.4499 15.95C22.5666 16.8 22.3916 17.5208 21.9249 18.1125C21.4582 18.7042 20.7999 19 19.9499 19C19.5999 19 19.2749 18.9375 18.9749 18.8125C18.6749 18.6875 18.3999 18.5 18.1499 18.25L15.8999 16H9.09989L6.84989 18.25C6.59989 18.5 6.32489 18.6875 6.02489 18.8125C5.72489 18.9375 5.39989 19 5.04989 19ZM17.4999 13C17.7832 13 18.0207 12.9042 18.2124 12.7125C18.4041 12.5208 18.4999 12.2833 18.4999 12C18.4999 11.7167 18.4041 11.4792 18.2124 11.2875C18.0207 11.0958 17.7832 11 17.4999 11C17.2166 11 16.9791 11.0958 16.7874 11.2875C16.5957 11.4792 16.4999 11.7167 16.4999 12C16.4999 12.2833 16.5957 12.5208 16.7874 12.7125C16.9791 12.9042 17.2166 13 17.4999 13ZM15.4999 10C15.7832 10 16.0207 9.90417 16.2124 9.7125C16.4041 9.52083 16.4999 9.28333 16.4999 9C16.4999 8.71667 16.4041 8.47917 16.2124 8.2875C16.0207 8.09583 15.7832 8 15.4999 8C15.2166 8 14.9791 8.09583 14.7874 8.2875C14.5957 8.47917 14.4999 8.71667 14.4999 9C14.4999 9.28333 14.5957 9.52083 14.7874 9.7125C14.9791 9.90417 15.2166 10 15.4999 10ZM8.24989 11.25V12.25C8.24989 12.4667 8.32073 12.6458 8.46239 12.7875C8.60406 12.9292 8.78323 13 8.99989 13C9.21656 13 9.39573 12.9292 9.53739 12.7875C9.67906 12.6458 9.74989 12.4667 9.74989 12.25V11.25H10.7499C10.9666 11.25 11.1457 11.1792 11.2874 11.0375C11.4291 10.8958 11.4999 10.7167 11.4999 10.5C11.4999 10.2833 11.4291 10.1042 11.2874 9.9625C11.1457 9.82083 10.9666 9.75 10.7499 9.75H9.74989V8.75C9.74989 8.53333 9.67906 8.35417 9.53739 8.2125C9.39573 8.07083 9.21656 8 8.99989 8C8.78323 8 8.60406 8.07083 8.46239 8.2125C8.32073 8.35417 8.24989 8.53333 8.24989 8.75V9.75H7.24989C7.03323 9.75 6.85406 9.82083 6.71239 9.9625C6.57073 10.1042 6.49989 10.2833 6.49989 10.5C6.49989 10.7167 6.57073 10.8958 6.71239 11.0375C6.85406 11.1792 7.03323 11.25 7.24989 11.25H8.24989Z" fill="white"/>
</svg>
