<svg width="64" height="64" viewBox="0 0 64 64" fill="none" xmlns="http://www.w3.org/2000/svg">
<mask id="mask0_106_541" style="mask-type:alpha" maskUnits="userSpaceOnUse" x="0" y="0" width="64" height="64">
<rect width="64" height="64" fill="#D9D9D9"/>
</mask>
<g mask="url(#mask0_106_541)">
<path d="M30.3731 42L43.4701 33.6667C44.097 33.2667 44.4104 32.7111 44.4104 32C44.4104 31.2889 44.097 30.7333 43.4701 30.3333L30.3731 22C29.7014 21.5556 29.0186 21.5222 28.3246 21.9C27.6305 22.2778 27.2835 22.8667 27.2835 23.6667V40.3333C27.2835 41.1333 27.6305 41.7222 28.3246 42.1C29.0186 42.4778 29.7014 42.4445 30.3731 42ZM34 58.6667C30.2835 58.6667 26.791 57.9667 23.5223 56.5667C20.2537 55.1667 17.4104 53.2667 14.9925 50.8667C12.5746 48.4667 10.6604 45.6445 9.24995 42.4C7.8395 39.1556 7.13428 35.6889 7.13428 32C7.13428 28.3111 7.8395 24.8445 9.24995 21.6C10.6604 18.3556 12.5746 15.5333 14.9925 13.1333C17.4104 10.7333 20.2537 8.83334 23.5223 7.43334C26.791 6.03334 30.2835 5.33334 34 5.33334C37.7164 5.33334 41.2089 6.03334 44.4776 7.43334C47.7462 8.83334 50.5895 10.7333 53.0074 13.1333C55.4253 15.5333 57.3395 18.3556 58.75 21.6C60.1604 24.8445 60.8656 28.3111 60.8656 32C60.8656 35.6889 60.1604 39.1556 58.75 42.4C57.3395 45.6445 55.4253 48.4667 53.0074 50.8667C50.5895 53.2667 47.7462 55.1667 44.4776 56.5667C41.2089 57.9667 37.7164 58.6667 34 58.6667Z" fill="white"/>
</g>
</svg>
