<svg width="104" height="32" viewBox="0 0 104 32" fill="none" xmlns="http://www.w3.org/2000/svg">
<path fill-rule="evenodd" clip-rule="evenodd" d="M0.418432 18.6419C1.05269 20.5939 2.74552 22.2868 6.13118 25.6724L6.32758 25.8688C9.71325 29.2545 11.4061 30.9473 13.3581 31.5816C15.0752 32.1395 16.9248 32.1395 18.6419 31.5816C20.5939 30.9473 22.2868 29.2545 25.6724 25.8688L25.8688 25.6724C29.2545 22.2868 30.9473 20.5939 31.5816 18.6419C32.1395 16.9248 32.1395 15.0752 31.5816 13.3581C30.9473 11.4061 29.2545 9.71325 25.8688 6.32759L25.6724 6.13119C22.2868 2.74552 20.5939 1.05269 18.6419 0.418432C16.9248 -0.139477 15.0752 -0.139477 13.3581 0.418432C11.4061 1.05269 9.71325 2.74552 6.32759 6.13118L6.13119 6.32758C2.74552 9.71325 1.05269 11.4061 0.418432 13.3581C-0.139477 15.0752 -0.139477 16.9248 0.418432 18.6419ZM22.3524 21.5494C21.9207 21.9464 21.103 22.145 19.8995 22.145H18.755V23.5536C18.755 23.6815 18.7042 23.8041 18.6138 23.8945C18.5234 23.9849 18.4007 24.0357 18.2729 24.0357H17.3556C17.2278 24.0357 17.1051 23.9849 17.0147 23.8945C16.9243 23.8041 16.8735 23.6815 16.8735 23.5536V22.145H12.1556C10.9246 22.145 10.0908 21.9464 9.65434 21.5494C9.21812 21.1524 9 20.4047 9 19.3061V18.9738L11.5906 18.489V19.9015H20.3681V17.1596H12.6377C11.4159 17.1596 10.589 16.9589 10.1573 16.5571C9.72551 16.1555 9.50951 15.4101 9.50951 14.3205V12.9774C9.50951 11.8972 9.72551 11.1563 10.1573 10.7547C10.589 10.3531 11.4159 10.1523 12.6375 10.1523H13.1107V8.44638C13.1107 8.31851 13.1615 8.19587 13.2519 8.10545C13.3423 8.01503 13.4649 7.96423 13.5928 7.96423H14.51C14.6379 7.96423 14.7606 8.01503 14.851 8.10545C14.9414 8.19587 14.9922 8.31851 14.9922 8.44638V10.1523H19.7205C20.9239 10.1523 21.7483 10.3438 22.1939 10.727C22.6395 11.11 22.8622 11.7864 22.8622 12.7558V13.0467L20.3405 13.5866V12.2988H12.1278V14.8331H19.8995C21.1214 14.8331 21.9437 15.0292 22.3661 15.4214C22.7888 15.814 23 16.5594 23 17.658V19.3061C23 20.4047 22.7842 21.1524 22.3524 21.5494Z" fill="white"/>
<path d="M45.0026 19.3535L40 2.28287H43.3904L46.5912 14.0189L49.7919 2.30658L53.1823 2.28287L56.3831 14.0189L59.5838 2.28287H62.9742L57.9716 19.3535H54.7945L51.4871 7.83082L48.1797 19.3535H45.0026Z" fill="white"/>
<path d="M64.8771 19.3535V2.28287H76.0204V5.29394H68.1015V8.94516H74.5978V11.9562H68.1015V16.3424H76.0204V19.3535H64.8771Z" fill="white"/>
<path d="M78.8618 19.3535V2.28287H89.2938V5.50732H82.0862V9.20596H87.8713V12.4304H82.0862V19.3535H78.8618Z" fill="white"/>
<path d="M95.3936 19.3535V5.29394H90.0116V2.28287H104V5.29394H98.618V19.3535H95.3936Z" fill="white"/>
<path d="M44 28.9097V24.1609H47.5604C47.7294 24.1609 47.8831 24.2048 48.0217 24.2928C48.1647 24.3763 48.2795 24.4907 48.3661 24.6358C48.4527 24.7765 48.496 24.9348 48.496 25.1107V26.0208C48.496 26.078 48.4917 26.133 48.483 26.1857C48.4744 26.2341 48.4614 26.2825 48.4441 26.3308C48.5134 26.4232 48.5697 26.5243 48.613 26.6342C48.6563 26.7398 48.678 26.8475 48.678 26.9574V27.96C48.678 28.1359 48.6346 28.2963 48.548 28.4415C48.4614 28.5822 48.3466 28.6965 48.2037 28.7844C48.0651 28.868 47.9091 28.9097 47.7359 28.9097H44ZM44.9746 27.9534H47.6904C47.7034 27.9534 47.712 27.9512 47.7164 27.9468C47.725 27.938 47.7294 27.927 47.7294 27.9138V27.0102C47.7294 27.0014 47.725 26.9926 47.7164 26.9838C47.712 26.975 47.7034 26.9706 47.6904 26.9706H44.9746C44.9616 26.9706 44.9508 26.975 44.9421 26.9838C44.9378 26.9926 44.9356 27.0014 44.9356 27.0102V27.9138C44.9356 27.927 44.9378 27.938 44.9421 27.9468C44.9508 27.9512 44.9616 27.9534 44.9746 27.9534ZM44.9746 26.0143H47.5085C47.5171 26.0143 47.5258 26.0121 47.5345 26.0077C47.5431 25.9989 47.5474 25.9901 47.5474 25.9813V25.1568C47.5474 25.1436 47.5431 25.1348 47.5345 25.1304C47.5258 25.1216 47.5171 25.1172 47.5085 25.1172H44.9746C44.9616 25.1172 44.9508 25.1216 44.9421 25.1304C44.9378 25.1348 44.9356 25.1436 44.9356 25.1568V25.9813C44.9356 25.9901 44.9378 25.9989 44.9421 26.0077C44.9508 26.0121 44.9616 26.0143 44.9746 26.0143Z" fill="white" fill-opacity="0.6"/>
<path d="M53.7977 28.9097V27.1355L51.6341 24.1609H52.7451L54.2655 26.1L55.7793 24.1609H56.9033L54.7397 27.1421V28.9097H53.7977Z" fill="white" fill-opacity="0.6"/>
<path d="M67.3901 25.5425L66.0502 28.8813H65.2854L63.4286 24.1569H64.5943L65.7918 27.452L67.0789 24.1569H67.8437L69.1203 27.452L70.2967 24.1568H71.3042L69.4684 28.8812H68.7088L67.3901 25.5425Z" fill="white" fill-opacity="0.6"/>
<path d="M79.2405 27.9975V28.8813H74.2819V24.1569H79.1825V24.9915H75.4055V26.0226H77.6052V26.8355H75.4055V27.9975H79.2405Z" fill="white" fill-opacity="0.6"/>
<path d="M83.3259 24.1569V28.8813H82.2182V24.1569H83.3259Z" fill="white" fill-opacity="0.6"/>
<path d="M90.4761 28.9398C90.9368 28.9398 91.2498 28.8616 91.415 28.7052C91.5803 28.5488 91.663 28.2543 91.663 27.8215V27.1722C91.663 26.7395 91.5821 26.4458 91.4203 26.2912C91.2586 26.1366 90.9438 26.0594 90.4761 26.0594H87.501V25.061H90.6449V25.5683L91.6102 25.3556V25.2411C91.6102 24.8592 91.525 24.5927 91.3544 24.4419C91.1838 24.2909 90.8682 24.2154 90.4075 24.2154H88.5975V23.5434C88.5975 23.4931 88.578 23.4447 88.5434 23.4091C88.5088 23.3735 88.4618 23.3535 88.4129 23.3535H88.0618C88.0128 23.3535 87.9659 23.3735 87.9313 23.4091C87.8966 23.4447 87.8772 23.4931 87.8772 23.5434V24.2154H87.6961C87.2284 24.2154 86.9119 24.2946 86.7466 24.4528C86.5813 24.611 86.4986 24.9028 86.4986 25.3284V25.8575C86.4986 26.2867 86.5813 26.5804 86.7466 26.7386C86.9119 26.8968 87.2284 26.9759 87.6961 26.9759H90.6554V28.056H87.2953V27.4996L86.3036 27.6906V27.8215C86.3036 28.2543 86.3871 28.5488 86.5541 28.7052C86.7211 28.8616 87.0403 28.9398 87.5116 28.9398H89.3177V29.4947C89.3177 29.5451 89.3371 29.5934 89.3717 29.629C89.4063 29.6646 89.4533 29.6847 89.5022 29.6847H89.8534C89.9023 29.6847 89.9492 29.6646 89.9839 29.629C90.0185 29.5934 90.0379 29.5451 90.0379 29.4947V28.9398H90.4761Z" fill="white" fill-opacity="0.6"/>
<path d="M98.8131 28.9398C99.2738 28.9398 99.5868 28.8616 99.7521 28.7052C99.9174 28.5488 100 28.2543 100 27.8215V27.1722C100 26.7395 99.9191 26.4458 99.7573 26.2912C99.5956 26.1366 99.2808 26.0594 98.8131 26.0594H95.838V25.061H98.9819V25.5683L99.9473 25.3556V25.2411C99.9473 24.8592 99.862 24.5927 99.6914 24.4419C99.5208 24.2909 99.2052 24.2154 98.7446 24.2154H96.9345V23.5434C96.9345 23.4931 96.9151 23.4447 96.8804 23.4091C96.8458 23.3735 96.7989 23.3535 96.7499 23.3535H96.3988C96.3499 23.3535 96.3029 23.3735 96.2683 23.4091C96.2337 23.4447 96.2142 23.4931 96.2142 23.5434V24.2154H96.0331C95.5655 24.2154 95.2489 24.2946 95.0837 24.4528C94.9184 24.611 94.8357 24.9028 94.8357 25.3284V25.8575C94.8357 26.2867 94.9184 26.5804 95.0837 26.7386C95.2489 26.8968 95.5655 26.9759 96.0332 26.9759H98.9925V28.056H95.6323V27.4996L94.6406 27.6906V27.8215C94.6406 28.2543 94.7241 28.5488 94.8911 28.7052C95.0582 28.8616 95.3774 28.9398 95.8486 28.9398H97.6547V29.4947C97.6547 29.5451 97.6741 29.5934 97.7088 29.629C97.7434 29.6646 97.7903 29.6847 97.8393 29.6847H98.1904C98.2393 29.6847 98.2863 29.6646 98.3209 29.629C98.3555 29.5934 98.375 29.5451 98.375 29.4947V28.9398H98.8131Z" fill="white" fill-opacity="0.6"/>
</svg>
